<svg xmlns="http://www.w3.org/2000/svg" width="171.133" height="112.012" viewBox="0 0 171.133 112.012">
  <g id="cdclogo" transform="translate(-1289.035 -385.863)">
    <g id="surface1" transform="translate(1273.742 346.324)">
      <path id="Path_123" data-name="Path 123" d="M15.293,39.539H178.914V151.551H15.293V39.539" fill="#fff" fill-rule="evenodd"/>
      <path id="Path_124" data-name="Path 124" d="M180.035,141.48h2.715v.32h-1.117v3.039h-.48V141.8h-1.117v-.32" fill="#fff" fill-rule="evenodd"/>
      <path id="Path_125" data-name="Path 125" d="M185.945,144.84v-2.879l-.957,2.879h-.32l-.957-2.879v2.879h-.48V141.48h.637l.961,2.879.957-2.879h.641v3.359h-.48" fill="#fff" fill-rule="evenodd"/>
      <path id="Path_126" data-name="Path 126" d="M18.492,146.594v.32a3.576,3.576,0,0,0,2.234.641c.961,0,1.438-.16,1.438-.641,0-.8-4.152.16-4.152-1.918,0-.957.957-1.6,2.395-1.6a17.3,17.3,0,0,1,2.719.32c.16,0,.16,0,.16-.16l.16.16L22.8,145h-.16v-.156a3.748,3.748,0,0,0-2.078-.48c-.957,0-1.277.16-1.277.48,0,.957,4.316-.16,4.316,2.074,0,.961-.641,1.918-2.879,1.918a8.678,8.678,0,0,1-2.715-.48.157.157,0,0,0-.16.16l-.16-.16.8-1.758" fill="#006caf" fill-rule="evenodd"/>
      <path id="Path_127" data-name="Path 127" d="M28.078,144.359l.957,2.395H27.117Zm1.117,3.2a2.691,2.691,0,0,1,.48.957h-.32v.16h2.078v-.16c-.16,0-.16,0-.32-.16-.641-1.6-1.918-4.633-1.918-4.633,0-.16.16-.16.32-.16v-.16H26.8v.16h.16c0,.16-1.6,4.637-1.758,4.793,0,.16-.16.16-.32.16v.16H26.8v-.16h-.32c0-.16.16-.16.48-.957H29.2" fill="#006caf" fill-rule="evenodd"/>
      <path id="Path_128" data-name="Path 128" d="M38.625,144.84h-.16c0-.16,0-.16-.16-.16H34.949v.8h2.234c.16,0,.16,0,.16-.16h.16v1.758h-.16c0-.32,0-.32-.16-.32H34.949v1.6c0,.16,0,.16.32.16v.16H33.191v-.16c.16,0,.16,0,.16-.16v-4.633c0-.16,0-.16-.16-.16v-.16H38.3c.16,0,.16,0,.16-.316h.16v1.758" fill="#006caf" fill-rule="evenodd"/>
      <path id="Path_129" data-name="Path 129" d="M44.535,146.754h-.16c0-.16-.16-.16-.32-.16H42.141v.961H45.5a.559.559,0,0,0,.16-.32v1.758a.559.559,0,0,0-.16-.32H40.383v-.16c.316,0,.316,0,.316-.16v-4.633c0-.16,0-.16-.316-.16v-.16H45.5s.16,0,.16-.316v1.758a.559.559,0,0,0-.16-.32H42.141v.957h1.914a.344.344,0,0,0,.32-.32h.16v1.6" fill="#006caf" fill-rule="evenodd"/>
      <path id="Path_130" data-name="Path 130" d="M49.488,144.52h1.6c.641,0,.8.32.8.637,0,.16-.16.48-.8.48h-1.6Zm0,2.234h.961c.16.16,1.117,1.6,1.117,1.6,0,.16,0,.16-.16.16v.16h2.078v-.16c-.16,0-.16,0-.32-.16l-1.117-1.6A1.869,1.869,0,0,0,53.484,145c0-1.117-.641-1.6-2.238-1.6H47.57v.16c.32,0,.32,0,.32.16v4.633c0,.16,0,.16-.32.16v.16h2.078v-.16c-.16,0-.16,0-.16-.16v-1.6" fill="#006caf" fill-rule="evenodd"/>
      <path id="Path_131" data-name="Path 131" d="M59.234,146.117a1.234,1.234,0,0,1-1.277,1.117,1.093,1.093,0,0,1-1.117-1.117,1.234,1.234,0,0,1,1.117-1.277,1.37,1.37,0,0,1,1.277,1.277" fill="#006caf" fill-rule="evenodd"/>
      <path id="Path_132" data-name="Path 132" d="M130.5,146.117a1.234,1.234,0,0,1-1.277,1.117,1.091,1.091,0,0,1-1.117-1.117,1.231,1.231,0,0,1,1.117-1.277,1.37,1.37,0,0,1,1.277,1.277" fill="#006caf" fill-rule="evenodd"/>
      <path id="Path_133" data-name="Path 133" d="M68.5,148.352c0,.16,0,.16.32.16v.16H66.746v-.16c.16,0,.32,0,.32-.16v-1.758H64.348v1.758c0,.16,0,.16.32.16v.16H62.59v-.16c.32,0,.32,0,.32-.16v-4.633c0-.16,0-.16-.32-.16v-.16h2.078v.16c-.32,0-.32,0-.32.16v1.6h2.719v-1.6c0-.16-.16-.16-.32-.16v-.16h2.078v.16c-.32,0-.32,0-.32.16v4.633" fill="#006caf" fill-rule="evenodd"/>
      <path id="Path_134" data-name="Path 134" d="M75.055,146.754h-.16c0-.16,0-.16-.32-.16H72.816v.961h3.2c.156,0,.156-.16.156-.32h.16v1.758h-.16c0-.16,0-.32-.156-.32H70.9v-.16c.316,0,.316,0,.316-.16v-4.633c0-.16,0-.16-.316-.16v-.16h5.113c.156,0,.156,0,.156-.316h.16v1.758h-.16c0-.16,0-.32-.156-.32h-3.2v.957h1.758c.32,0,.32-.16.32-.32h.16v1.6" fill="#006caf" fill-rule="evenodd"/>
      <path id="Path_135" data-name="Path 135" d="M80.809,144.359l.957,2.395H80.008Zm1.277,3.2c0,.16.32.8.32.957h-.16v.16h2.078v-.16c-.16,0-.32,0-.32-.16-.641-1.6-1.918-4.633-1.918-4.633,0-.16,0-.16.16-.16v-.16H79.688v.16h.16c0,.16-1.758,4.637-1.758,4.793-.16.16-.16.16-.32.16v.16h1.758v-.16h-.16c0-.16,0-.16.32-.957h2.4" fill="#006caf" fill-rule="evenodd"/>
      <path id="Path_136" data-name="Path 136" d="M87.836,147.555H91.2c.156,0,.156-.16.316-.32v1.758c-.16-.16-.16-.32-.316-.32H85.922v-.16c.316,0,.316,0,.316-.16v-4.633c0-.16,0-.16-.316-.16v-.16H88v.16c-.16,0-.16,0-.16.16v3.836" fill="#006caf" fill-rule="evenodd"/>
      <path id="Path_137" data-name="Path 137" d="M93.75,148.672v-.16c.16,0,.32,0,.32-.16V144.68H92.313c-.16,0-.16,0-.16.16h-.16v-1.758h.16c0,.316,0,.316.16.316h4.953c.16,0,.16,0,.16-.316h.16v1.758h-.16c0-.16,0-.16-.16-.16H95.508v3.672c0,.16,0,.16.32.16v.16H93.75" fill="#006caf" fill-rule="evenodd"/>
      <path id="Path_138" data-name="Path 138" d="M105.094,148.352c0,.16,0,.16.32.16v.16h-2.078v-.16c.16,0,.32,0,.32-.16v-1.758h-2.715v1.758c0,.16,0,.16.32.16v.16H99.184v-.16c.16,0,.32,0,.32-.16v-4.633c0-.16-.16-.16-.32-.16v-.16h2.078v.16c-.32,0-.32,0-.32.16v1.6h2.715v-1.6c0-.16-.16-.16-.32-.16v-.16h2.078v.16c-.32,0-.32,0-.32.16v4.633" fill="#006caf" fill-rule="evenodd"/>
      <path id="Path_139" data-name="Path 139" d="M107.652,148.672v-.16c.32,0,.32,0,.32-.16v-4.633c0-.16,0-.16-.32-.16v-.16h2.078v.16c-.32,0-.32,0-.32.16v4.633c0,.16,0,.16.32.16v.16h-2.078" fill="#006caf" fill-rule="evenodd"/>
      <path id="Path_140" data-name="Path 140" d="M116.121,146.754h-.16c0-.16-.16-.16-.32-.16h-1.918v.961h3.355a.5.5,0,0,1,.16-.32v1.758a.5.5,0,0,1-.16-.32h-5.113v-.16c.32,0,.32,0,.32-.16v-4.633c0-.16,0-.16-.32-.16v-.16h5.113l.16-.316v1.758a.5.5,0,0,1-.16-.32h-3.355v.957h1.918a.344.344,0,0,0,.32-.32h.16v1.6" fill="#006caf" fill-rule="evenodd"/>
      <path id="Path_141" data-name="Path 141" d="M121.074,144.52h1.6c.637,0,.8.32.8.637,0,.16-.16.48-.8.48h-1.6Zm0,2.234h.957c.16.16,1.117,1.6,1.117,1.6,0,.16,0,.16-.156.16v.16h2.074v-.16c-.16,0-.16,0-.32-.16l-1.117-1.6A1.865,1.865,0,0,0,125.066,145c0-1.117-.637-1.6-2.234-1.6h-3.676v.16c.32,0,.32,0,.32.16v4.633c0,.16,0,.16-.32.16v.16h2.078v-.16c-.16,0-.16,0-.16-.16v-1.6" fill="#006caf" fill-rule="evenodd"/>
      <path id="Path_142" data-name="Path 142" d="M135.934,144.52h1.6c.48,0,.8.16.8.637,0,.32-.316.48-.8.48h-1.6Zm0,2.234h1.918a1.693,1.693,0,1,0,0-3.355h-3.676v.16c.16,0,.32,0,.32.16v4.633c0,.16-.16.16-.32.16v.16h2.078v-.16c-.32,0-.32,0-.32-.16v-1.6" fill="#006caf" fill-rule="evenodd"/>
      <path id="Path_143" data-name="Path 143" d="M145.52,146.754h-.16c0-.16-.16-.16-.32-.16h-1.914v.961h3.355a.559.559,0,0,0,.16-.32h.16v1.758h-.16a.559.559,0,0,0-.16-.32h-5.113v-.16c.32,0,.32,0,.32-.16v-4.633c0-.16,0-.16-.32-.16v-.16h5.113s.16,0,.16-.316h.16v1.758h-.16a.559.559,0,0,0-.16-.32h-3.355v.957h1.914a.344.344,0,0,0,.32-.32h.16v1.6" fill="#006caf" fill-rule="evenodd"/>
      <path id="Path_144" data-name="Path 144" d="M151.434,144.52a1.642,1.642,0,0,1,1.758,1.6c0,.957-.8,1.438-1.758,1.438a1.468,1.468,0,0,1-1.6-1.437A1.6,1.6,0,0,1,151.434,144.52Zm0-1.121c-1.758,0-3.2.961-3.2,2.719s1.438,2.715,3.2,2.715,3.2-.957,3.2-2.715-1.437-2.719-3.2-2.719" fill="#006caf" fill-rule="evenodd"/>
      <path id="Path_145" data-name="Path 145" d="M158.3,144.52h1.438c.641,0,.8.16.8.637,0,.32-.156.48-.8.48H158.3Zm0,2.234h1.758a1.7,1.7,0,0,0,1.918-1.6,1.726,1.726,0,0,0-1.918-1.758h-3.676v.16c.316,0,.316,0,.316.16v4.633c0,.16,0,.16-.316.16v.16h2.078v-.16c-.16,0-.16,0-.16-.16v-1.6" fill="#006caf" fill-rule="evenodd"/>
      <path id="Path_146" data-name="Path 146" d="M165.492,147.555h3.516a.559.559,0,0,0,.16-.32v1.758a.559.559,0,0,0-.16-.32h-5.273v-.16c.16,0,.16,0,.16-.16v-4.633c0-.16,0-.16-.16-.16v-.16h2.078v.16c-.32,0-.32,0-.32.16v3.836" fill="#006caf" fill-rule="evenodd"/>
      <path id="Path_147" data-name="Path 147" d="M175.082,146.754h-.16c0-.16-.16-.16-.32-.16h-1.918v.961h3.2c.16,0,.16-.16.32-.32v1.758c-.16-.16-.16-.32-.32-.32h-4.953v-.16c.16,0,.32,0,.32-.16v-4.633c0-.16-.16-.16-.32-.16v-.16h4.953c.16,0,.16,0,.32-.316v1.758c-.16-.16-.16-.32-.32-.32h-3.2v.957H174.6a.344.344,0,0,0,.32-.32h.16v1.6" fill="#006caf" fill-rule="evenodd"/>
      <path id="Path_148" data-name="Path 148" d="M17.852,42.1H176.84v95.711H17.852V42.1" fill="#006caf" fill-rule="evenodd"/>
      <path id="Path_149" data-name="Path 149" d="M83.2,137.969,176.84,43.055V42.1h-.48L81.766,137.969H83.2" fill="#fff" fill-rule="evenodd"/>
      <path id="Path_150" data-name="Path 150" d="M24.082,137.969,30.473,42.1h-.957l-6.391,95.871h.957" fill="#fff" fill-rule="evenodd"/>
      <path id="Path_151" data-name="Path 151" d="M29.2,137.969,42.938,42.1H41.82L28.238,137.969H29.2" fill="#fff" fill-rule="evenodd"/>
      <path id="Path_152" data-name="Path 152" d="M34.629,137.969,56.039,42.1H54.922l-21.41,95.871h1.117" fill="#fff" fill-rule="evenodd"/>
      <path id="Path_153" data-name="Path 153" d="M40.539,137.969,71.059,42.1H70.1l-30.52,95.871h.957" fill="#fff" fill-rule="evenodd"/>
      <path id="Path_154" data-name="Path 154" d="M46.133,137.969,85.441,42.1H84.324L45.176,137.969h.957" fill="#fff" fill-rule="evenodd"/>
      <path id="Path_155" data-name="Path 155" d="M52.684,137.969,101.738,42.1h-1.117L51.566,137.969h1.117" fill="#fff" fill-rule="evenodd"/>
      <path id="Path_156" data-name="Path 156" d="M126.188,42.1h-1.121L61.473,137.969H62.75L126.188,42.1" fill="#fff" fill-rule="evenodd"/>
      <path id="Path_157" data-name="Path 157" d="M148.875,42.1H147.6L70.422,137.969H71.7L148.875,42.1" fill="#fff" fill-rule="evenodd"/>
      <path id="Path_158" data-name="Path 158" d="M176.84,78.367V77.09L100.3,137.969h1.6l74.941-59.6" fill="#fff" fill-rule="evenodd"/>
      <path id="Path_159" data-name="Path 159" d="M176.84,104.73v-1.117l-54.969,34.355h1.758L176.84,104.73" fill="#fff" fill-rule="evenodd"/>
      <path id="Path_160" data-name="Path 160" d="M176.84,129.5v-.961l-20.293,9.43h2.395l17.9-8.469" fill="#fff" fill-rule="evenodd"/>
      <path id="Path_161" data-name="Path 161" d="M53.484,108.727c-16.457,0-27.8-10.227-27.8-26.684,0-16.141,11.984-27.324,27.965-27.324a32.081,32.081,0,0,1,12.461,2.4v7.988a14.5,14.5,0,0,0-12.3-6.551c-9.906,0-15.66,9.105-15.66,22.371,0,13.9,5.273,23.645,16.617,23.645,4,0,9.109-1.914,11.344-4.152l1.918,4.152c-2.238,1.758-6.23,4.156-14.539,4.156" fill="#fff" fill-rule="evenodd"/>
      <path id="Path_162" data-name="Path 162" d="M107.492,81.723c0,20.453-12.625,21.891-22.211,21.891v-44.1C95.188,59.512,107.492,60.789,107.492,81.723Zm-13.1,26.047c10.063,0,25.406-6.234,25.406-26.207,0-21.25-15.184-26.043-26.687-26.043H74.1v52.25H94.391" fill="#fff" fill-rule="evenodd"/>
      <path id="Path_163" data-name="Path 163" d="M153.672,108.727c-16.621,0-27.8-10.227-27.8-26.684,0-16.141,11.984-27.324,27.8-27.324a31.514,31.514,0,0,1,12.461,2.4v7.988a14.51,14.51,0,0,0-12.3-6.551c-9.906,0-15.5,9.105-15.5,22.371,0,13.9,5.273,23.645,16.621,23.645,3.992,0,8.945-1.914,11.184-4.152l1.918,4.152c-2.238,1.758-6.23,4.156-14.379,4.156" fill="#fff" fill-rule="evenodd"/>
    </g>
  </g>
</svg>
