<svg xmlns="http://www.w3.org/2000/svg" width="39.104" height="49.069" viewBox="0 0 39.104 49.069">
  <path id="code-fork" d="M35.877,11.88a7.356,7.356,0,0,0-2.82,14.148,4.9,4.9,0,0,1-4.536,3.016H18.713a9.587,9.587,0,0,0-4.9,1.373V16.343a7.356,7.356,0,1,0-4.9,0v20.5a7.356,7.356,0,1,0,5.3.123,4.9,4.9,0,0,1,4.512-3.016h9.808a10,10,0,0,0,6.191-2.2,9.583,9.583,0,0,0,3.4-5.544A7.356,7.356,0,0,0,35.877,11.88Zm-24.52-4.9A2.452,2.452,0,1,1,8.9,9.428,2.452,2.452,0,0,1,11.357,6.976Zm0,39.233a2.452,2.452,0,1,1,2.452-2.452A2.452,2.452,0,0,1,11.357,46.209Zm24.52-24.52a2.452,2.452,0,1,1,2.452-2.452A2.452,2.452,0,0,1,35.877,21.689Z" transform="translate(-4 -2.052)" fill="rgba(28,30,33,0.65)"/>
</svg>
