<svg width="1039" height="744" viewBox="0 0 1039 744" fill="none" xmlns="http://www.w3.org/2000/svg">
<g id="covidart">
<path id="Ellipse 1" opacity="0.1" d="M337.781 743.064C388.896 743.064 430.333 736.409 430.333 728.199C430.333 719.989 388.896 713.334 337.781 713.334C286.666 713.334 245.229 719.989 245.229 728.199C245.229 736.409 286.666 743.064 337.781 743.064Z" fill="#328BD8"/>
<path id="Path 1" opacity="0.1" d="M1.976 321.241H98.376V452.632H9.033C8.796 453.981 8.568 455.339 8.321 456.697H98.375V562.661C98.214 562.614 98.075 562.561 97.919 562.5C95.373 561.493 92.847 560.429 90.319 559.29L88.704 558.559C86.1707 557.359 83.6373 556.092 81.104 554.759C80.221 554.294 79.337 553.809 78.463 553.315C64.4011 545.437 51.6267 535.455 40.583 523.715C40.26 523.402 39.956 523.069 39.633 522.765C38.094 521.093 36.584 519.403 35.121 517.674L33.506 515.774C31.777 513.656 30.106 511.481 28.481 509.274C28.244 508.951 28.016 508.628 27.769 508.324C21.1634 499.165 15.6787 489.248 11.432 478.784C11.299 478.471 11.185 478.129 11.062 477.834C9.76 474.485 8.606 471.1 7.6 467.677C7.163 466.243 6.745 464.828 6.384 463.336C6.251 462.899 6.137 462.472 6.033 462.044C0.635997 440.987 0 419.111 0 397.39V389.79C0 381.004 0.100001 372.161 0.256001 363.328C0.256001 361.039 0.350999 358.759 0.397999 356.461C0.531332 350.629 0.721332 344.796 0.967999 338.961C1.025 337.337 1.101 335.722 1.186 334.107C1.18592 333.174 1.23331 332.242 1.328 331.314C1.558 327.937 1.748 324.584 1.976 321.241Z" fill="#328BD8"/>
<path id="Path 2" opacity="0.1" d="M98.374 174.948H45.497C54.0926 161.494 63.4844 148.566 73.622 136.232C81.477 126.582 89.769 117.178 98.375 108.117L98.374 174.948Z" fill="#328BD8"/>
<path id="Path 3" opacity="0.1" d="M98.38 179.012V317.175H2.28003C2.28003 316.775 2.34603 316.368 2.37503 315.969C2.46003 314.877 2.54603 313.784 2.64103 312.702C2.74103 311.429 2.85903 310.147 2.98303 308.902C3.10703 307.657 3.23903 306.138 3.38303 304.761C3.52703 303.384 3.65803 301.987 3.82003 300.61C3.98203 299.233 4.12003 297.855 4.29503 296.488C4.47003 295.121 4.61803 293.733 4.79503 292.366C4.93703 291.226 5.08903 290.096 5.24103 288.956C5.45903 287.351 5.68703 285.736 5.93403 284.14C5.94806 283.9 5.98151 283.662 6.03403 283.428C7.76757 271.747 10.1297 260.167 13.11 248.74C16.2297 236.753 20.2135 225.008 25.03 213.596C30.1494 201.658 36.1433 190.115 42.963 179.06L98.38 179.012Z" fill="#328BD8"/>
<path id="Path 4" opacity="0.1" d="M121.389 321.231V452.631H327.289V321.231H121.389ZM121.389 456.687V569.528C122.567 569.775 123.735 570.012 124.889 570.212C126.466 570.512 128.033 570.791 129.638 571.029C129.938 571.076 130.255 571.124 130.588 571.152C131.215 571.252 131.861 571.342 132.488 571.427C134.074 571.645 135.651 571.827 137.237 571.968C137.987 572.044 138.747 572.111 139.507 572.168L141.34 572.31C142.34 572.386 143.325 572.443 144.304 572.471C144.912 572.471 145.52 572.528 146.147 572.547H152.919C153.736 572.547 154.553 572.547 155.36 572.471H155.417C155.985 572.483 156.553 572.458 157.117 572.395C157.275 572.404 157.434 572.404 157.592 572.395C158.062 572.407 158.531 572.385 158.998 572.329H159.33L162.512 572.082C163.557 571.987 164.612 571.864 165.675 571.75L167.841 571.494C176.651 570.259 185.364 568.406 193.914 565.947C213.12 560.59 231.908 553.096 251.104 547.606C275.923 540.53 303.345 537.053 327.328 545.706V456.688L121.389 456.687ZM327.289 174.947V0.0149995C304.746 -0.229357 282.264 2.40732 260.389 7.861C208.252 20.961 161.473 49.369 121.389 85.653V174.938H131.723V178.994H121.389V317.176H327.289V179.003H174.152V174.947H327.289ZM591.749 115.857C578.849 115.401 566.027 111.317 554.43 105.01C532.251 92.947 514.537 74.321 494.742 58.601C453.614 25.86 402.608 6.101 350.281 1.201V174.947H644.208L644.939 174.178L591.749 115.857ZM618.525 111.108L646.916 142.263V102.94C637.408 104.118 629.078 106.92 618.563 111.071L618.525 111.108ZM646.916 597.548V456.688H586.416C586.255 456.088 586.093 455.482 585.903 454.874C586.083 455.482 586.235 456.09 586.403 456.688H350.319V558.558C352.561 560.22 354.774 561.968 356.968 563.744C359.333 565.644 361.668 567.644 364.016 569.614L366.381 571.571C367.511 572.521 368.651 573.471 369.8 574.364C372.079 576.213 374.381 578.036 376.705 579.835C377.854 580.785 379.032 581.635 380.205 582.535C398.752 596.716 418.318 609.513 438.743 620.823C443.321 623.356 447.94 625.829 452.601 628.241C455.707 629.827 458.832 631.404 461.966 632.933C466.677 635.232 471.427 637.448 476.214 639.582C520.349 659.393 567.019 672.987 614.889 679.976C625.521 681.547 636.194 682.78 646.908 683.676V597.539H647.858L646.916 597.548ZM350.319 179.003V317.176H646.953V179.003H350.319ZM350.319 321.232V452.632H646.953V321.232H350.319ZM669.977 102.769V146.632L706.213 106.872C694.207 104.934 682.128 103.55 669.977 102.721V102.769ZM669.977 321.279V452.632H958.489V321.232L669.977 321.279ZM957.436 607.979L958.452 456.689H669.977V685.189C688.561 685.97 707.173 685.748 725.733 684.524H726.056C734.923 683.967 743.747 683.156 752.528 682.092H752.728C799.584 676.639 845.401 664.414 888.745 645.799L957.436 607.979ZM1014.12 342.867C1013.04 340.312 1011.91 337.776 1010.76 335.267C1008.61 330.518 1006.34 325.902 1004.01 321.285H981.497V452.632H1038.41C1038.38 415.432 1028.97 377.443 1014.15 342.821L1014.12 342.867ZM981.496 456.734V586.863C997.529 571.495 1011.07 553.913 1020.83 533.815C1032.56 509.615 1037.93 483.407 1038.36 456.715L981.496 456.734ZM981.496 282.99V317.184H1001.9C995.724 305.413 988.923 293.982 981.522 282.942L981.496 282.99ZM785.829 128.547C784.329 127.977 782.829 127.398 781.317 126.837C765.389 120.955 749.113 116.064 732.581 112.191L677.129 173.047L676.065 174.177L676.777 174.956H874.135C846.649 156.036 817.016 140.441 785.857 128.499L785.829 128.547ZM879.92 179.047H674.02L669.974 182.747V317.176H958.525V252.064C935.636 224.382 909.218 199.819 879.945 179.003L879.92 179.047Z" fill="#328BD8"/>
<path id="Path 5" opacity="0.1" d="M98.38 248.702V317.176H2.28003C2.28003 316.776 2.34603 316.369 2.37503 315.97C2.46003 314.878 2.54603 313.785 2.64103 312.703C2.74103 311.43 2.85903 310.148 2.98303 308.903C3.10703 307.658 3.23903 306.139 3.38303 304.762C3.52703 303.385 3.65803 301.988 3.82003 300.611C3.98203 299.234 4.12003 297.856 4.29503 296.489C4.47003 295.122 4.61803 293.734 4.79503 292.367C4.93703 291.227 5.08903 290.097 5.24103 288.957C5.45903 287.352 5.68703 285.737 5.93403 284.141C5.94806 283.901 5.98151 283.663 6.03403 283.429C7.77025 271.748 10.135 260.169 13.118 248.742L98.38 248.702Z" fill="#328BD8"/>
<path id="Path 6" opacity="0.1" d="M1.976 321.241H98.376V452.632H9.033C8.796 453.981 8.568 455.339 8.321 456.697H98.375V562.661C98.214 562.614 98.075 562.561 97.919 562.5C95.373 561.493 92.847 560.429 90.319 559.29L88.704 558.559C86.1707 557.359 83.6373 556.092 81.104 554.759C80.221 554.294 79.337 553.809 78.463 553.315C64.4011 545.437 51.6267 535.455 40.583 523.715C40.26 523.402 39.956 523.069 39.633 522.765C38.094 521.093 36.584 519.403 35.121 517.674L33.506 515.774C31.777 513.656 30.106 511.481 28.481 509.274C28.244 508.951 28.016 508.628 27.769 508.324C21.1634 499.165 15.6787 489.248 11.432 478.784C11.299 478.471 11.185 478.129 11.062 477.834C9.76 474.485 8.606 471.1 7.6 467.677C7.163 466.243 6.745 464.828 6.384 463.336C6.251 462.899 6.137 462.472 6.033 462.044C0.635997 440.987 0 419.111 0 397.39V389.79C0 381.004 0.100001 372.161 0.256001 363.328C0.256001 361.039 0.350999 358.759 0.397999 356.461C0.531332 350.629 0.721332 344.796 0.967999 338.961C1.025 337.337 1.101 335.722 1.186 334.107C1.18592 333.174 1.23331 332.242 1.328 331.314C1.558 327.937 1.748 324.584 1.976 321.241Z" fill="#328BD8"/>
<path id="Path 7" opacity="0.1" d="M193.871 198.788V317.176H121.389V198.788H131.723V158.705H174.143V198.788H193.871Z" fill="#328BD8"/>
<path id="Rectangle 2" opacity="0.1" d="M193.872 321.232H121.399V452.623H193.872V321.232Z" fill="#328BD8"/>
<path id="Path 8" opacity="0.1" d="M121.389 456.697H193.871V565.928C185.321 568.385 176.608 570.235 167.798 571.466L165.632 571.732C164.568 571.855 163.514 571.96 162.469 572.064C161.424 572.168 160.341 572.244 159.287 572.311H158.955C158.499 572.311 158.005 572.368 157.555 572.378H157.071C156.501 572.378 155.931 572.435 155.361 572.454C154.554 572.502 153.746 572.511 152.92 572.521H146.199L144.366 572.454C143.416 572.454 142.39 572.354 141.402 572.283L139.578 572.15L137.308 571.941C135.708 571.799 134.126 571.618 132.559 571.4L130.659 571.134L129.709 571.001C128.123 570.754 126.556 570.488 124.96 570.184C123.792 569.984 122.633 569.738 121.46 569.5L121.389 456.697Z" fill="#328BD8"/>
<path id="Rectangle 3" opacity="0.1" d="M646.954 184.806H587.19V317.166H646.954V184.806Z" fill="#328BD8"/>
<path id="Path 9" opacity="0.1" d="M646.963 321.232V452.632H350.319V395.956H508.325V429.39H587.19V321.232H646.963Z" fill="#328BD8"/>
<path id="Path 10" opacity="0.1" d="M647.899 597.577H646.949V683.777C636.248 682.872 625.578 681.64 614.939 680.082C567.045 673.07 520.355 659.446 476.206 639.6C463.459 633.863 450.972 627.601 438.744 620.812C418.32 609.496 398.753 596.698 380.199 582.522C375.538 578.951 370.938 575.297 366.399 571.561C363.255 568.968 360.13 566.308 356.967 563.725C354.773 561.949 352.56 560.201 350.318 558.525V456.697H586.399C586.237 456.089 586.076 455.481 585.905 454.883C586.085 455.483 586.256 456.089 586.418 456.697H646.951V597.52C647.276 597.53 647.59 597.558 647.899 597.577Z" fill="#328BD8"/>
<path id="Path 11" opacity="0.1" d="M802.821 174.947H763.878V162.847H781.336V126.8C782.849 127.351 784.356 127.917 785.857 128.5V162.846H802.821V174.947Z" fill="#328BD8"/>
<path id="Path 12" opacity="0.1" d="M896.646 317.175H705.463L705.529 317.222L705.444 317.175H669.977V184.816H680.026V282.649H725.951V224.709H763.887V179.009H802.83V224.744H840.767V282.684H896.646V317.175Z" fill="#328BD8"/>
<path id="Path 13" opacity="0.1" d="M669.977 321.232V452.632H896.646V321.232H669.977ZM958.177 607.304L958.49 503.297H896.646V456.755H669.977V685.191C688.56 685.972 707.172 685.75 725.732 684.526H726.055C734.922 683.969 743.746 683.158 752.527 682.094H752.727C799.583 676.641 845.4 664.416 888.744 645.801" fill="#328BD8"/>
<path id="Path 14" opacity="0.1" d="M985.522 456.697H1038.4C1037.93 483.378 1032.58 509.584 1020.86 533.786C1011.1 553.894 997.547 571.476 981.533 586.834V503.249H985.522V456.697Z" fill="#328BD8"/>
<path id="Path 15" opacity="0.1" d="M1038.43 452.632H985.523V342.821H1014.15C1028.97 377.443 1038.38 415.436 1038.43 452.632Z" fill="#328BD8"/>
<path id="Rectangle 4" opacity="0.1" d="M646.963 221.603H614.944V263.101H646.963V221.603Z" fill="#328BD8"/>
<path id="Rectangle 5" opacity="0.1" d="M646.963 307.62H614.944V317.175H646.963V307.62Z" fill="#328BD8"/>
<path id="Rectangle 6" opacity="0.1" d="M646.963 321.232H614.944V349.11H646.963V321.232Z" fill="#328BD8"/>
<path id="Rectangle 7" opacity="0.1" d="M646.963 393.638H614.944V435.136H646.963V393.638Z" fill="#328BD8"/>
<path id="Rectangle 8" opacity="0.1" d="M646.963 479.655H614.944V521.153H646.963V479.655Z" fill="#328BD8"/>
<path id="Path 16" opacity="0.1" d="M646.954 597.52C647.272 597.51 647.59 597.529 647.904 597.577H646.954V607.218H614.944V565.672H646.954V597.52Z" fill="#328BD8"/>
<path id="Path 17" opacity="0.1" d="M646.954 651.67V683.727C636.253 682.822 625.583 681.59 614.944 680.032V651.67H646.954Z" fill="#328BD8"/>
<path id="Rectangle 9" opacity="0.1" d="M487.542 449.583H350.319V452.632H487.542V449.583Z" fill="#328BD8"/>
<path id="Rectangle 10" opacity="0.1" d="M487.542 456.688H350.319V468.371H487.542V456.688Z" fill="#328BD8"/>
<path id="Rectangle 11" opacity="0.1" d="M487.542 506.668H350.319V525.456H487.542V506.668Z" fill="#328BD8"/>
<path id="Path 18" opacity="0.1" d="M487.532 563.754V582.542H380.201C375.54 578.983 370.937 575.33 366.39 571.581C363.246 568.988 360.131 566.328 356.958 563.754H487.532Z" fill="#328BD8"/>
<path id="Path 19" opacity="0.1" d="M487.529 620.83V639.599H476.201C463.468 633.856 450.984 627.589 438.749 620.799L487.529 620.83Z" fill="#328BD8"/>
<path id="Rectangle 12" opacity="0.1" d="M752.755 333.969H725.742V360.982H752.755V333.969Z" fill="#328BD8"/>
<path id="Rectangle 13" opacity="0.1" d="M167.864 208.106H140.851V235.119H167.864V208.106Z" fill="#328BD8"/>
<path id="Rectangle 14" opacity="0.1" d="M167.864 270.852H140.851V297.865H167.864V270.852Z" fill="#328BD8"/>
<path id="Rectangle 15" opacity="0.1" d="M167.864 333.598H140.851V360.611H167.864V333.598Z" fill="#328BD8"/>
<path id="Rectangle 16" opacity="0.1" d="M167.864 396.335H140.851V423.348H167.864V396.335Z" fill="#328BD8"/>
<path id="Rectangle 17" opacity="0.1" d="M167.864 459.082H140.851V486.095H167.864V459.082Z" fill="#328BD8"/>
<path id="Rectangle 18" opacity="0.1" d="M167.864 521.828H140.851V548.841H167.864V521.828Z" fill="#328BD8"/>
<path id="Rectangle 19" opacity="0.1" d="M855.879 333.969H828.866V360.982H855.879V333.969Z" fill="#328BD8"/>
<path id="Rectangle 20" opacity="0.1" d="M752.755 400.6H725.742V427.613H752.755V400.6Z" fill="#328BD8"/>
<path id="Rectangle 21" opacity="0.1" d="M855.879 400.6H828.866V427.613H855.879V400.6Z" fill="#328BD8"/>
<path id="Rectangle 22" opacity="0.1" d="M752.755 467.222H725.742V494.235H752.755V467.222Z" fill="#328BD8"/>
<path id="Rectangle 23" opacity="0.1" d="M855.879 467.222H828.866V494.235H855.879V467.222Z" fill="#328BD8"/>
<path id="Rectangle 24" opacity="0.1" d="M752.755 533.853H725.742V560.866H752.755V533.853Z" fill="#328BD8"/>
<path id="Rectangle 25" opacity="0.1" d="M855.879 533.853H828.866V560.866H855.879V533.853Z" fill="#328BD8"/>
<path id="Rectangle 26" opacity="0.1" d="M752.755 600.484H725.742V627.497H752.755V600.484Z" fill="#328BD8"/>
<path id="Rectangle 27" opacity="0.1" d="M855.879 600.484H828.866V627.497H855.879V600.484Z" fill="#328BD8"/>
<path id="Path 20" opacity="0.1" d="M725.742 684.525V667.105H752.742V682.046L725.742 684.525Z" fill="#328BD8"/>
<path id="Path 21" opacity="0.1" d="M5.927 283.409V298.863H98.375V283.409H5.927ZM15.14 297.894H7.59901V284.359H15.199L15.14 297.894ZM24.34 297.894H16.74V284.359H24.34V297.894ZM33.525 297.894H25.925V284.359H33.525V297.894ZM42.725 297.894H35.144V284.359H42.744L42.725 297.894ZM51.919 297.894H44.319V284.359H51.919V297.894ZM61.119 297.894H53.519V284.359H61.119V297.894ZM70.319 297.894H62.719V284.359H70.319V297.894ZM79.513 297.894H71.913V284.359H79.513V297.894ZM88.707 297.894H81.107V284.359H88.707V297.894ZM97.901 297.894H90.301V284.359H97.901V297.894Z" fill="#328BD8"/>
<path id="Path 22" opacity="0.1" d="M5.927 328.374V343.828H98.375V328.374H5.927ZM15.14 342.85H7.59901V329.35H15.199L15.14 342.85ZM24.34 342.85H16.74V329.35H24.34V342.85ZM33.525 342.85H25.925V329.35H33.525V342.85ZM42.725 342.85H35.144V329.35H42.744L42.725 342.85ZM51.919 342.85H44.319V329.35H51.919V342.85ZM61.119 342.85H53.519V329.35H61.119V342.85ZM70.319 342.85H62.719V329.35H70.319V342.85ZM79.513 342.85H71.913V329.35H79.513V342.85ZM88.707 342.85H81.107V329.35H88.707V342.85ZM97.901 342.85H90.301V329.35H97.901V342.85Z" fill="#328BD8"/>
<path id="Path 23" opacity="0.1" d="M5.927 373.359V388.841H98.375V373.359H5.927ZM15.14 387.835H7.59901V374.328H15.199L15.14 387.835ZM24.34 387.835H16.74V374.328H24.34V387.835ZM33.525 387.835H25.925V374.328H33.525V387.835ZM42.725 387.835H35.144V374.328H42.744L42.725 387.835ZM51.919 387.835H44.319V374.328H51.919V387.835ZM61.119 387.835H53.519V374.328H61.119V387.835ZM70.319 387.835H62.719V374.328H70.319V387.835ZM79.513 387.835H71.913V374.328H79.513V387.835ZM88.707 387.835H81.107V374.328H88.707V387.835ZM97.901 387.835H90.301V374.328H97.901V387.835Z" fill="#328BD8"/>
<path id="Path 24" opacity="0.1" d="M5.927 418.343V433.778H98.375V418.343H5.927ZM15.14 432.818H7.59901V419.302H15.199L15.14 432.818ZM24.34 432.818H16.74V419.302H24.34V432.818ZM33.525 432.818H25.925V419.302H33.525V432.818ZM42.725 432.818H35.144V419.302H42.744L42.725 432.818ZM51.919 432.818H44.319V419.302H51.919V432.818ZM61.119 432.818H53.519V419.302H61.119V432.818ZM70.319 432.818H62.719V419.302H70.319V432.818ZM79.513 432.818H71.913V419.302H79.513V432.818ZM88.707 432.818H81.107V419.302H88.707V432.818ZM97.901 432.818H90.301V419.302H97.901V432.818Z" fill="#328BD8"/>
<path id="Path 25" opacity="0.1" d="M6.32599 463.318C6.69599 464.771 7.11399 466.224 7.55099 467.659V464.287H15.151V477.794H11.085C11.208 478.107 11.332 478.449 11.455 478.744H98.375V463.318H6.32599ZM24.373 477.794H16.773V464.287H24.373V477.794ZM33.558 477.794H25.958V464.287H33.558V477.794ZM42.758 477.794H35.144V464.287H42.744L42.758 477.794ZM51.952 477.794H44.352V464.287H51.952V477.794ZM61.152 477.794H53.552V464.287H61.152V477.794ZM70.352 477.794H62.752V464.287H70.352V477.794ZM79.546 477.794H71.946V464.287H79.546V477.794ZM88.74 477.794H81.14V464.287H88.74V477.794ZM97.934 477.794H90.334V464.287H97.934V477.794Z" fill="#328BD8"/>
<path id="Path 26" opacity="0.1" d="M27.792 508.302C28.029 508.602 28.257 508.948 28.504 509.252H33.532V515.739C34.073 516.385 34.605 517.031 35.156 517.639V509.214H42.756V522.768H39.679C39.979 523.081 40.279 523.414 40.629 523.718H98.408V508.302H27.792ZM51.932 522.768H44.332V509.268H51.932V522.768ZM61.132 522.768H53.532V509.268H61.132V522.768ZM70.332 522.768H62.732V509.268H70.332V522.768ZM79.526 522.768H71.926V509.268H79.532L79.526 522.768ZM88.72 522.768H81.12V509.268H88.72V522.768ZM97.914 522.768H90.314V509.268H97.914V522.768Z" fill="#328BD8"/>
<path id="Path 27" opacity="0.1" d="M78.504 553.277C79.368 553.771 80.252 554.227 81.145 554.721V554.246H88.745V558.52L90.36 559.27V554.245H97.96V562.461C98.1057 562.533 98.2585 562.591 98.416 562.632V553.277H78.504Z" fill="#328BD8"/>
<path id="Path 28" opacity="0.1" d="M585.907 454.874C586.087 455.482 586.239 456.09 586.407 456.688C586.258 456.09 586.097 455.482 585.907 454.874ZM131.761 174.919V178.975H174.19V174.919H131.761ZM585.907 454.874C586.087 455.482 586.239 456.09 586.407 456.688C586.258 456.09 586.097 455.482 585.907 454.874ZM585.907 454.874C586.087 455.482 586.239 456.09 586.407 456.688C586.258 456.09 586.097 455.482 585.907 454.874Z" fill="#328BD8"/>
<path id="Path 29" d="M427.275 360.631C427.275 360.631 423.533 360.109 423.533 354.657C423.533 349.205 420.854 339.023 420.854 339.023C420.854 338.976 418.536 321.29 415.335 318.478C412.134 315.666 408.021 299.158 408.021 299.158C408.021 299.158 407.321 290.201 405.884 288.273C404.447 286.345 402.512 281.624 399.653 274.89C396.794 268.156 384.873 263.49 384.873 263.49C384.873 263.49 363.321 250.99 357.214 246.915C356.659 246.58 356.14 246.189 355.666 245.747C354.602 244.347 349.966 244.322 349.966 244.322C349.429 241.092 349.061 237.836 348.866 234.567C348.874 234.224 348.858 233.881 348.819 233.541C355.629 229.515 360.759 223.168 363.266 215.665C363.38 215.304 363.475 214.924 363.579 214.565C363.987 214.431 364.363 214.212 364.681 213.924C365 213.637 365.256 213.285 365.431 212.893C365.982 211.668 365.991 210.233 366.675 209.093C367.475 207.744 368.993 207.022 370.189 206.006C373.21 203.441 373.989 199.12 373.846 195.187C373.746 192.005 373.238 188.795 373.438 185.632L373.495 184.832C373.552 184.357 373.618 183.882 373.704 183.426C374.169 181.07 375.186 178.848 375.756 176.511C376.326 174.174 376.383 171.543 375.056 169.53C373.109 166.576 369.056 165.987 365.491 165.683C361.454 165.341 357.845 165.783 355.261 162.435C354.052 160.682 352.692 159.039 351.196 157.524C350.664 157.03 345.496 153.877 345.496 153.668C340.453 151.332 334.736 150.894 329.396 152.433C326.717 153.212 324.191 154.485 321.474 155.121C315.614 156.508 308.874 155.007 303.892 158.36C301.119 160.26 299.456 163.28 297.899 166.225C296.632 168.65 295.347 171.072 294.043 173.491C291.943 177.471 289.807 181.517 288.923 185.924C288.737 186.883 288.623 187.854 288.581 188.83V188.83V190.378C288.57 190.696 288.59 191.014 288.638 191.328C288.695 191.622 288.685 191.717 288.714 191.917C288.743 192.117 288.79 192.563 288.847 192.867C288.904 193.171 289.018 193.703 289.132 194.121C289.179 194.301 289.246 194.472 289.303 194.643C289.403 194.966 289.512 195.279 289.635 195.593C289.702 195.754 289.768 195.925 289.844 196.087C289.986 196.413 290.148 196.73 290.328 197.037C290.404 197.17 290.461 197.293 290.537 197.417C290.802 197.859 291.094 198.284 291.411 198.69C293.444 201.226 296.436 202.841 298.649 205.215V206.279C298.767 211.575 300.176 216.762 302.756 221.389C305.335 226.016 309.006 229.942 313.449 232.827C313.449 233.188 313.496 233.558 313.515 233.919C313.702 236.738 313.668 239.568 313.415 242.382C313.028 241.926 312.544 241.563 311.998 241.32C311.452 241.077 310.858 240.959 310.261 240.976C309.853 240.955 309.444 240.988 309.045 241.076L308.96 241.01V241.095C306.87 241.608 304.296 243.783 301.836 249.966C301.836 249.966 294.351 258.401 288.652 258.049C282.953 257.697 268.525 266.826 268.525 266.826C268.525 266.826 254.448 275.963 251.425 285.272C249.737 290.55 247.713 295.715 245.365 300.735L227.965 336.591L224.755 365.039C224.755 365.039 226.531 377.691 226.18 379.619C225.829 381.547 233.48 398.939 233.48 398.939C233.48 398.939 258.774 443.382 269.108 445.661L269.849 445.139C270.292 445.37 270.763 445.545 271.249 445.661L273.377 444.161C273.505 445.834 273.451 447.515 273.216 449.176C271.791 453.564 273.748 482.202 276.236 487.815C278.724 493.428 277.841 567.031 277.841 567.031L277.49 573.531C277.498 573.723 277.527 573.914 277.575 574.101L277.49 575.64L277.746 575.773C278.012 577.834 277.926 579.924 277.49 581.956C276.597 584.805 276.236 592.856 276.236 592.856C276.236 592.856 269.122 638.334 272.494 647.472C275.866 656.61 278.734 666.621 278.734 666.621C278.734 666.621 282.296 678.021 278.905 679.966C275.514 681.911 265.873 685.181 267.858 689.93C269.658 694.318 276.511 706.077 277.527 707.797L277.442 708.697L276.042 723.828C276.268 725.826 276.81 727.775 277.647 729.603C279.176 732.903 282.147 736.318 287.801 735.948C288.751 735.881 289.853 735.767 290.916 735.625C301.26 734.238 313.997 729.625 313.997 729.625C313.337 729.205 312.733 728.704 312.197 728.134V728.134C311.689 727.641 311.286 727.05 311.013 726.397C310.74 725.744 310.604 725.042 310.611 724.334C310.763 721.579 305.605 708.453 304.323 705.223C304.123 704.758 304.023 704.492 304.023 704.492C304.023 704.492 315.782 692.201 313.823 681.307C313.823 681.307 300.81 673.707 305.094 669.539C309.378 665.371 317.031 653.4 317.031 653.4C317.031 653.4 317.382 608.615 317.031 601.928C316.664 597.286 316.884 592.615 317.686 588.028C317.828 587.335 317.999 586.66 318.18 585.995C324.106 586.88 330.088 587.333 336.08 587.353C338.265 587.353 340.487 587.353 342.729 587.22C342.729 587.853 342.757 588.537 342.814 589.272C343.308 600.366 344.229 619.819 344.98 627.047C346.044 637.41 351.923 665.335 351.923 665.335C351.923 665.335 340.705 672.535 353.88 690.278C353.88 690.278 353.88 696.708 353.006 697.639C352.073 700.682 351.321 703.778 350.755 706.91C350.204 710.253 349.976 713.635 350.869 715.392C353.006 719.592 365.829 719.248 365.829 719.248L366.142 719.191C368.563 718.941 371.009 719.174 373.339 719.877C375.669 720.579 377.836 721.738 379.715 723.285C384.588 727.198 403.081 725.479 413.092 724.235C417.015 723.741 419.636 723.285 419.636 723.285C419.763 722.841 419.808 722.377 419.769 721.917V721.917C419.669 719.457 417.736 714.062 404.669 709.246C404.669 709.246 392.378 700.982 392.549 693.783H390.868C391.434 693.747 392.002 693.747 392.568 693.783C392.568 693.783 387.752 676.211 389.718 674.783C391.684 673.355 385.795 653.883 385.795 653.883C385.795 653.883 382.423 621.209 382.243 618.919C382.25 616.955 382.548 615.002 383.126 613.125L382.243 595.211C382.243 595.211 382.072 589.256 382.243 587.318C382.214 585.636 382.078 583.958 381.835 582.293C381.749 581.628 381.664 580.935 381.569 580.251C386.176 579.083 389.169 578 389.169 578L388.631 515.654C392.544 508.054 393.266 491.386 393.247 479.56C393.247 471.96 392.905 466.338 392.905 466.338L398.253 457.609C398.253 457.609 399.488 447.161 397.531 444.872C397.183 444.437 397.013 443.885 397.057 443.329C397.102 442.773 397.356 442.255 397.768 441.88C398.138 441.586 398.528 441.319 398.936 441.08C398.936 441.08 398.879 440.994 398.813 440.871C399.186 440.559 399.583 440.277 400 440.026C400 440.026 398.1 437.082 399.8 435.837C401.4 436.92 402.82 437.737 403.9 438.402C403.824 439.095 403.748 439.494 403.748 439.494L404.204 438.544C405.249 439.133 405.885 439.494 405.885 439.494C405.885 439.494 414.263 422.805 414.085 420.345C413.907 417.885 419.785 407.522 419.785 407.522C419.785 407.522 420.497 402.079 423.708 399.8C426.919 397.521 426.197 381 426.197 381C426.197 381 427.09 372.394 429.227 368.88C431.364 365.366 427.275 360.631 427.275 360.631ZM266.981 353.308L267.142 357.288L265.508 354.657L266.981 353.308Z" fill="url(#paint0_linear)"/>
<path id="Path 30" d="M406.34 432.286L404.288 441.025C404.288 441.025 387.856 432.638 384.888 421.981C381.92 411.324 389.846 407.281 389.846 407.281L405.157 413.768L406.34 432.286Z" fill="white"/>
<path id="Path 31" opacity="0.1" d="M406.34 432.286L404.288 441.025C404.288 441.025 387.856 432.638 384.888 421.981C381.92 411.324 389.846 407.281 389.846 407.281L405.157 413.768L406.34 432.286Z" fill="black"/>
<path id="Path 32" d="M314.121 729.691C314.121 729.691 298.921 735.276 288.475 735.979C282.928 736.349 280.012 732.949 278.511 729.672C277.691 727.85 277.162 725.911 276.944 723.925L278.302 708.87L279.024 700.853L301.224 695.087L304.368 704.699L304.662 705.43C305.925 708.641 310.988 721.701 310.836 724.43C310.83 725.128 310.965 725.82 311.232 726.465C311.5 727.11 311.895 727.694 312.394 728.182C312.903 728.756 313.484 729.263 314.121 729.691V729.691Z" fill="white"/>
<path id="Path 33" d="M417.931 722.034C417.969 722.491 417.924 722.951 417.798 723.392C417.798 723.392 385.298 728.816 378.646 723.392C376.771 721.808 374.586 720.633 372.231 719.942C369.875 719.252 367.401 719.062 364.968 719.384C364.968 719.384 352.392 719.726 350.293 715.584C349.419 713.846 349.647 710.474 350.193 707.149C350.744 704.034 351.479 700.954 352.393 697.926L352.893 697.526L355.885 695.126L390.915 694.091H391.181C391.01 701.253 403.073 709.469 403.073 709.469C415.886 714.22 417.776 719.584 417.931 722.034Z" fill="white"/>
<path id="Path 34" opacity="0.1" d="M417.931 722.031C417.964 722.489 417.916 722.948 417.789 723.389C417.789 723.389 385.295 728.813 378.646 723.389C376.773 721.806 374.589 720.632 372.235 719.941C369.882 719.251 367.41 719.06 364.978 719.381C364.978 719.381 352.393 719.723 350.303 715.581C349.429 713.833 349.648 710.471 350.189 707.146C355.033 707.63 362.679 708.837 365.681 711.715C370.221 716.094 377.915 720.463 382.636 720.805C386.331 721.047 408.431 721.75 417.931 722.031Z" fill="black"/>
<path id="Path 35" opacity="0.1" d="M314.121 729.69C314.121 729.69 298.921 735.275 288.475 735.978C282.928 736.348 280.012 732.948 278.521 729.661C282.387 730.961 287.753 732.33 290.574 731.076C293.917 729.594 305.774 728.635 312.42 728.226C312.926 728.78 313.497 729.272 314.121 729.69V729.69Z" fill="black"/>
<path id="Path 36" d="M336.67 279.609C324.132 274.736 308.004 258.637 312.031 251.109C312.925 249.211 313.457 247.162 313.598 245.068C313.857 242.226 313.895 239.367 313.712 236.519C313.429 231.856 312.868 227.215 312.031 222.619C312.031 222.619 351.174 223.502 348.894 229.268C348.229 230.959 348.125 233.894 348.305 237.18C348.485 240.466 348.96 244.18 349.454 247.324C350.138 251.636 350.822 254.924 350.822 254.924C350.822 254.924 348.428 258.277 347.022 258.457C345.616 258.637 354.66 286.553 336.67 279.609Z" fill="#8B5736"/>
<path id="Path 37" opacity="0.1" d="M304.632 705.432L304.338 705.755C292.638 691.602 278.483 709.241 278.483 709.241L278.274 708.871L278.996 700.854L301.196 695.088L304.34 704.7L304.632 705.432Z" fill="black"/>
<path id="Path 38" opacity="0.1" d="M391.189 695.087C391.189 695.087 382.64 694.907 378.081 698.934C373.522 702.961 351.481 699.808 352.435 698.934C352.716 698.501 352.886 698.005 352.929 697.49L355.921 695.09L390.951 694.055C391.089 694.688 391.189 695.087 391.189 695.087Z" fill="black"/>
<path id="Path 39" d="M319.192 583.947C318.555 585.521 318.072 587.153 317.748 588.82C316.956 593.385 316.736 598.031 317.093 602.65C317.445 609.299 317.093 653.856 317.093 653.856C317.093 653.856 309.58 665.738 305.393 669.927C301.206 674.116 313.942 681.639 313.942 681.639C315.842 692.467 304.33 704.701 304.33 704.701C292.63 690.548 278.475 708.201 278.475 708.201C278.475 708.201 270.781 694.901 268.863 690.154C266.945 685.407 276.376 682.118 279.691 680.19C283.006 678.262 279.53 666.89 279.53 666.89C279.53 666.89 276.73 656.926 273.403 647.836C270.076 638.746 277.069 593.496 277.069 593.496C277.069 593.496 277.43 585.46 278.294 582.658C278.73 580.636 278.817 578.554 278.55 576.503C278.493 575.81 278.427 575.23 278.379 574.841C278.331 574.452 278.294 574.271 278.294 574.271L278.427 574.043L283.176 565.191C283.176 565.191 321.472 578.372 319.192 583.947Z" fill="#328BD8"/>
<path id="Path 40" d="M391.191 694.043C391.191 694.043 382.642 693.862 378.083 697.843C373.524 701.824 351.483 698.717 352.437 697.843C353.391 696.969 353.311 690.501 353.311 690.501C340.384 672.853 351.411 665.691 351.411 665.691C351.411 665.691 345.636 637.908 344.591 627.602C343.86 620.402 342.957 601.054 342.473 590.007C342.264 585.258 342.141 581.99 342.141 581.99L352.703 579.862L354.061 579.587L379.536 574.477C379.536 574.477 380.236 579.226 380.714 583.111C380.951 584.77 381.085 586.442 381.114 588.117C380.943 590.017 381.114 595.963 381.114 595.963L381.978 613.791C381.413 615.661 381.122 617.603 381.114 619.557C381.285 621.827 384.6 654.331 384.6 654.331C384.6 654.331 390.366 673.731 388.4 675.123C386.434 676.515 391.191 694.043 391.191 694.043Z" fill="#328BD8"/>
<path id="Path 41" opacity="0.1" d="M348.894 229.268C348.229 230.959 348.125 233.894 348.305 237.18C343.062 240.337 337.035 241.951 330.915 241.837C324.796 241.723 318.834 239.885 313.712 236.534C313.43 231.866 312.869 227.22 312.031 222.619C312.031 222.619 351.174 223.483 348.894 229.268Z" fill="black"/>
<path id="Path 42" d="M364.025 208.276C364.031 211.699 363.491 215.101 362.425 218.354C360.049 225.647 355.17 231.864 348.652 235.906C342.133 239.948 334.395 241.555 326.806 240.441C319.218 239.328 312.267 235.567 307.184 229.823C302.102 224.079 299.214 216.722 299.033 209.054V208.275C299.033 199.655 302.457 191.389 308.552 185.294C314.647 179.199 322.913 175.775 331.533 175.775C340.153 175.775 348.419 179.199 354.514 185.294C360.609 191.389 364.033 199.655 364.033 208.275L364.025 208.276Z" fill="#8B5736"/>
<path id="Path 43" opacity="0.1" d="M336.67 279.61C324.132 274.737 308.004 258.638 312.031 251.11C312.925 249.212 313.457 247.163 313.598 245.069L330.762 259.174L341.381 267.884L349.454 247.334C350.138 251.646 350.822 254.934 350.822 254.934C350.822 254.934 348.428 258.287 347.022 258.467C345.616 258.647 354.66 286.553 336.67 279.61Z" fill="black"/>
<path id="Path 44" d="M381.056 341.943L366.723 582.731L348.03 583.956L299.626 444.343L307.567 278.587L309.239 243.566L330.762 261.243L341.391 269.953L349.702 248.8L365.156 262.269L381.056 341.943Z" fill="#328BD8"/>
<path id="Path 45" opacity="0.1" d="M319.193 583.947C318.556 585.521 318.073 587.153 317.749 588.82C304.147 586.72 290.937 582.592 278.559 576.576L278.302 576.444L278.387 574.915L278.434 574.115L283.183 565.263C283.183 565.263 321.472 578.372 319.193 583.947Z" fill="black"/>
<path id="Path 46" opacity="0.1" d="M352.922 588.858C349.445 589.45 345.938 589.851 342.417 590.058C342.208 585.309 342.085 582.041 342.085 582.041L352.647 579.913L352.922 588.858Z" fill="black"/>
<path id="Path 47" opacity="0.1" d="M380.657 583.159C373.904 584.916 363.474 586.892 354.137 585.659L354.004 579.635L379.479 574.525C379.479 574.525 380.182 579.227 380.657 583.159Z" fill="black"/>
<path id="Path 48" opacity="0.1" d="M353.967 586.759C315.024 593.408 279.357 574.345 279.357 574.345L279.699 567.886C279.699 567.886 280.582 494.663 278.132 489.049C275.682 483.435 273.772 454.969 275.159 450.6C276.546 446.231 270.096 380.711 270.096 380.711L269.051 354.111L230.811 338.623L247.911 302.985C250.22 297.989 252.206 292.849 253.857 287.598C256.83 278.347 270.631 269.257 270.631 269.257C270.631 269.257 284.784 260.177 290.378 260.518C295.972 260.859 303.305 252.482 303.305 252.482C308.719 238.682 313.62 244.931 313.62 244.931C313.588 245.618 313.499 246.301 313.354 246.973C311.454 262.123 344.072 309.995 344.537 310.84L347.643 386.504L350.787 482.257L353.967 586.759Z" fill="black"/>
<path id="Path 49" d="M352.921 586.759C313.978 593.408 278.302 574.345 278.302 574.345L278.653 567.886C278.653 567.886 279.536 494.663 277.076 489.049C274.616 483.435 272.716 454.969 274.112 450.6C275.508 446.231 269.049 380.711 269.049 380.711L267.995 354.111L229.737 338.566L246.837 302.928C249.141 297.929 251.127 292.79 252.783 287.541C255.746 278.29 269.557 269.2 269.557 269.2C269.557 269.2 283.71 260.12 289.295 260.461C294.88 260.802 302.222 252.425 302.222 252.425C307.646 238.625 313.622 244.874 313.622 244.874C313.622 245.529 313.052 245.824 313.356 246.916C317.535 261.61 343.029 309.938 343.494 310.783L346.638 386.447L349.782 482.2L352.921 586.759Z" fill="white"/>
<path id="Path 50" opacity="0.1" d="M342.426 312.939C338.237 311.191 316.049 285.859 316.049 285.859V280.093C315.242 278.193 310.449 279.352 306.549 280.682L308.221 245.661L310.121 247.238C314.283 261.923 341.942 312.094 342.426 312.939Z" fill="black"/>
<path id="Path 51" d="M343.48 310.84C339.28 309.092 317.094 283.76 317.094 283.76V277.994C316.287 276.094 311.494 277.253 307.594 278.583L309.275 243.562L311.175 245.139C315.346 259.824 343.014 310.004 343.48 310.84Z" fill="white"/>
<path id="Path 52" opacity="0.1" d="M279.36 437.179C279.882 437.179 306.44 434.387 306.44 434.387C306.44 434.387 322.521 466.007 321.466 473.701C320.411 481.395 318.502 488.201 312.034 487.001C305.566 485.801 277.222 487.951 277.222 487.951L279.36 437.179Z" fill="black"/>
<path id="Path 53" d="M278.302 435.08C278.824 435.08 305.382 432.287 305.382 432.287C305.382 432.287 321.453 463.917 320.408 471.601C319.363 479.285 317.435 486.101 310.976 484.901C304.517 483.701 276.164 485.851 276.164 485.851L278.302 435.08Z" fill="white"/>
<path id="Path 54" d="M298.312 420.233C298.312 420.233 322.685 433.333 323.212 437.333C323.739 441.333 310.812 435.585 308.012 434.892C306.174 434.449 304.303 434.157 302.417 434.018L283.791 434.518L298.312 420.233Z" fill="#8B5736"/>
<path id="Ellipse 3" opacity="0.1" d="M335.626 314.574C337.043 314.574 338.191 313.426 338.191 312.009C338.191 310.592 337.043 309.444 335.626 309.444C334.209 309.444 333.061 310.592 333.061 312.009C333.061 313.426 334.209 314.574 335.626 314.574Z" fill="black"/>
<path id="Ellipse 4" d="M335.626 313.529C337.043 313.529 338.191 312.381 338.191 310.964C338.191 309.547 337.043 308.399 335.626 308.399C334.209 308.399 333.061 309.547 333.061 310.964C333.061 312.381 334.209 313.529 335.626 313.529Z" fill="#3F3D56"/>
<path id="Ellipse 5" opacity="0.1" d="M340.346 425.591C341.763 425.591 342.911 424.443 342.911 423.026C342.911 421.609 341.763 420.461 340.346 420.461C338.929 420.461 337.781 421.609 337.781 423.026C337.781 424.443 338.929 425.591 340.346 425.591Z" fill="black"/>
<path id="Ellipse 6" d="M340.346 424.537C341.763 424.537 342.911 423.389 342.911 421.972C342.911 420.555 341.763 419.407 340.346 419.407C338.929 419.407 337.781 420.555 337.781 421.972C337.781 423.389 338.929 424.537 340.346 424.537Z" fill="#3F3D56"/>
<path id="Ellipse 7" opacity="0.1" d="M338.181 370.083C339.598 370.083 340.746 368.935 340.746 367.518C340.746 366.101 339.598 364.953 338.181 364.953C336.764 364.953 335.616 366.101 335.616 367.518C335.616 368.935 336.764 370.083 338.181 370.083Z" fill="black"/>
<path id="Ellipse 8" d="M338.181 369.038C339.598 369.038 340.746 367.89 340.746 366.473C340.746 365.056 339.598 363.908 338.181 363.908C336.764 363.908 335.616 365.056 335.616 366.473C335.616 367.89 336.764 369.038 338.181 369.038Z" fill="#3F3D56"/>
<path id="Path 55" d="M397.298 433.483C397.298 433.483 399.046 436.105 397.298 437.33C395.55 438.555 397.469 441.519 397.469 441.519C397.469 441.519 393.109 444.074 395.028 446.373C396.947 448.672 395.728 459.053 395.728 459.053L390.485 467.735C390.485 467.735 390.798 473.329 390.817 480.89C390.817 492.69 390.124 509.271 386.286 516.832L386.818 578.866C386.818 578.866 368.458 585.572 353.089 583.53L350.809 483.987C350.809 483.987 354.133 427.538 355.359 416.71C356.076 411.088 356.368 405.421 356.233 399.755C356.233 399.755 355.711 382.81 353.953 374.945C353.953 374.945 352.053 340.874 351.863 331.445C351.777 326.933 352.015 313.769 352.281 301.245C352.575 287.558 352.908 274.645 352.908 274.645L349.445 247.222C349.445 247.222 352.912 246.871 353.957 248.267C354.425 248.704 354.934 249.095 355.477 249.435V249.435C361.461 253.481 382.604 265.924 382.604 265.924C382.604 265.924 394.304 270.578 397.104 277.246C399.904 283.914 401.853 288.646 403.211 290.546C404.569 292.446 405.311 301.374 405.311 301.374C405.311 301.374 409.338 317.806 412.482 320.589C415.626 323.372 417.925 341.077 417.925 341.077L390.145 362.922C390.145 362.922 387.704 399.263 387.181 400.668C386.658 402.073 397.298 433.483 397.298 433.483Z" fill="white"/>
<path id="Path 56" d="M398.349 433.483C398.349 433.483 400.087 436.105 398.349 437.33C396.611 438.555 398.51 441.519 398.51 441.519C398.51 441.519 394.179 444.103 396.078 446.401C397.977 448.699 396.778 459.081 396.778 459.081L391.535 467.763C391.535 467.763 391.848 473.358 391.877 480.918C391.877 492.718 391.184 509.299 387.346 516.86L387.868 578.894C387.868 578.894 369.479 585.6 354.13 583.558L351.86 484.015C351.86 484.015 355.184 427.566 356.41 416.738C357.128 411.116 357.417 405.448 357.274 399.783C357.274 399.783 356.752 382.838 355.004 374.973C355.004 374.973 353.104 340.902 352.904 331.473C352.818 326.961 353.065 313.797 353.322 301.273C353.616 287.586 353.949 274.673 353.949 274.673L349.371 246.873C349.371 246.873 353.949 246.873 355.003 248.288C355.467 248.73 355.976 249.122 356.523 249.456C362.507 253.502 383.66 265.945 383.66 265.945C383.66 265.945 395.353 270.599 398.155 277.267C400.957 283.935 402.904 288.667 404.272 290.567C405.64 292.467 406.362 301.395 406.362 301.395C406.362 301.395 410.389 317.827 413.533 320.61C416.677 323.393 418.947 341.06 418.947 341.06L391.164 362.906C391.164 362.906 388.723 399.247 388.191 400.652C387.659 402.057 398.349 433.483 398.349 433.483Z" fill="white"/>
<path id="Path 57" opacity="0.1" d="M365.079 282.744L367.587 290.058L354.387 303.358C354.681 289.68 355.014 276.758 355.014 276.758L350.436 248.958C350.436 248.958 355.014 248.958 356.069 250.373C356.531 250.814 357.041 251.203 357.589 251.532L368.816 283.921L365.079 282.744Z" fill="black"/>
<path id="Path 58" d="M364.026 280.645L366.543 287.959L353.343 301.259C353.637 287.572 353.97 274.659 353.97 274.659L349.382 246.859C349.382 246.859 353.97 246.859 355.015 248.274C355.481 248.714 355.99 249.105 356.535 249.442V249.442L367.772 281.822L364.026 280.645Z" fill="white"/>
<path id="Path 59" opacity="0.1" d="M364.025 208.276C364.031 211.699 363.491 215.101 362.425 218.354C362.246 218.38 362.065 218.371 361.89 218.326C361.715 218.281 361.551 218.202 361.407 218.093C361.16 209.545 356.952 201.518 351.776 194.693C350.323 192.631 348.561 190.805 346.552 189.279C344.521 187.755 341.994 187.042 339.466 187.279C336.617 187.668 334.099 189.606 331.221 189.853C327.421 190.166 324.021 187.535 320.25 187.402C318.717 187.417 317.205 187.758 315.814 188.403C314.424 189.048 313.187 189.983 312.186 191.144C310.205 193.488 308.733 196.218 307.864 199.161C306.37 203.624 305.557 208.286 305.451 212.991C305.404 215.651 305.151 218.984 302.677 219.953C302.863 217.997 302.641 216.024 302.024 214.158C301.408 212.292 300.411 210.575 299.096 209.115L299.039 209.058V208.279C299.039 199.659 302.463 191.393 308.558 185.298C314.653 179.203 322.919 175.779 331.539 175.779C340.159 175.779 348.425 179.203 354.52 185.298C360.615 191.393 364.039 199.659 364.039 208.279L364.025 208.276Z" fill="black"/>
<path id="Path 60" d="M344.991 156.673C340.055 154.351 334.442 153.912 329.205 155.438C326.574 156.217 324.095 157.48 321.426 158.117C315.726 159.494 309.078 158.003 304.186 161.337C301.469 163.237 299.836 166.237 298.316 169.154L294.516 176.392C292.445 180.353 290.356 184.38 289.491 188.74C288.626 193.1 289.149 197.982 291.913 201.487C293.927 204.042 296.9 205.647 299.084 208.05C300.393 209.512 301.385 211.228 302 213.091C302.614 214.954 302.837 216.925 302.655 218.878C305.134 217.928 305.371 214.585 305.429 211.925C305.535 207.22 306.348 202.558 307.842 198.095C308.709 195.151 310.181 192.42 312.164 190.078C313.166 188.918 314.403 187.984 315.793 187.339C317.183 186.694 318.695 186.352 320.228 186.336C324.028 186.469 327.437 189.09 331.199 188.777C334.048 188.54 336.575 186.592 339.444 186.212C341.973 185.971 344.5 186.685 346.53 188.212C348.538 189.736 350.298 191.562 351.745 193.626C356.931 200.455 361.139 208.462 361.386 217.026C362.459 217.814 364.008 216.789 364.54 215.573C365.072 214.357 365.091 212.932 365.765 211.773C366.544 210.434 368.035 209.721 369.203 208.714C372.166 206.159 372.903 201.856 372.793 197.952C372.683 194.048 371.919 190.087 372.66 186.252C373.106 183.896 374.113 181.693 374.66 179.366C375.207 177.039 375.277 174.427 373.976 172.423C372.076 169.479 368.076 168.899 364.592 168.623C360.631 168.281 357.092 168.723 354.562 165.384C353.376 163.644 352.041 162.011 350.573 160.502C350.073 160.015 344.991 156.882 344.991 156.673Z" fill="#1C1B1C"/>
<path id="Path 61" opacity="0.1" d="M241.753 356.974L231.823 338.623L228.679 366.938C228.679 366.938 230.427 379.514 230.079 381.438C229.731 383.362 237.241 400.653 237.241 400.653C237.241 400.653 262.06 444.858 272.195 447.138L306.437 422.67L297.357 411.139C297.357 411.139 294.213 409.914 293.425 411.139C293.425 411.139 276.565 382.131 274.818 380.032C273.071 377.933 273.412 373.744 273.412 373.744C273.412 373.744 270.79 370.951 271.664 368.33C272.538 365.709 266.601 356.619 266.601 356.619L272.015 351.556L241.753 356.974Z" fill="black"/>
<path id="Path 62" d="M232.35 336.533L229.728 338.623L226.584 366.938C226.584 366.938 228.332 379.514 227.984 381.438C227.636 383.362 235.155 400.653 235.155 400.653C235.155 400.653 259.965 444.858 270.1 447.138L304.351 422.67L295.261 411.139C295.261 411.139 292.117 409.914 291.329 411.139C291.329 411.139 274.469 382.131 272.722 380.032C270.975 377.933 271.322 373.744 271.322 373.744C271.322 373.744 268.7 370.951 269.574 368.33C270.448 365.709 264.502 356.619 264.502 356.619L269.916 351.556L232.35 336.533Z" fill="white"/>
<path id="Path 63" opacity="0.1" d="M395.028 447.456C396.928 449.764 395.728 460.127 395.728 460.127L390.485 468.809C390.485 468.809 390.798 474.409 390.817 481.964L382.002 484.719C381.205 484.968 380.361 485.022 379.539 484.878C378.717 484.734 377.941 484.396 377.277 483.891C376.612 483.386 376.078 482.73 375.719 481.976C375.359 481.223 375.185 480.395 375.211 479.561L376.731 430.54L397.295 438.405C395.547 439.621 397.466 442.605 397.466 442.605C397.466 442.605 393.109 445.148 395.028 447.456Z" fill="black"/>
<path id="Path 64" d="M396.082 446.401C397.982 448.709 396.782 459.081 396.782 459.081L391.539 467.763C391.539 467.763 391.852 473.357 391.881 480.918L382.905 483.718C382.125 483.96 381.298 484.013 380.493 483.871C379.689 483.73 378.93 483.398 378.279 482.904C377.629 482.409 377.106 481.767 376.754 481.03C376.402 480.292 376.231 479.482 376.256 478.665L377.785 429.492L398.358 437.357C396.601 438.573 398.519 441.546 398.519 441.546C398.519 441.546 394.182 444.103 396.082 446.401Z" fill="white"/>
<path id="Path 65" d="M402.891 423.039C402.891 423.039 401.491 431.958 397.999 432.48C394.507 433.002 392.936 446.908 389.45 446.414C385.964 445.92 388.272 433.487 388.396 431.074C388.52 428.661 384.596 418.674 387.532 416.399C390.468 414.124 399.756 416.399 399.756 416.399L402.891 423.039Z" fill="#8B5736"/>
<path id="Path 66" opacity="0.1" d="M410.33 354.353L416.922 341.053C416.922 341.053 419.544 351.188 419.544 356.602C419.544 362.016 423.21 362.548 423.21 362.548C423.21 362.548 427.228 367.297 425.11 370.755C422.992 374.213 422.137 382.818 422.137 382.818C422.137 382.818 422.83 399.241 419.686 401.511C416.542 403.781 415.886 409.205 415.886 409.205C415.886 409.205 410.111 419.511 410.291 421.961C410.471 424.411 402.255 441.005 402.255 441.005C402.255 441.005 406.273 420.384 382.855 411.475C382.855 411.475 382.675 404.475 384.422 402.556C386.169 400.637 388.896 399.764 387.186 390.066C385.476 380.368 386.692 368.78 386.692 366.453C386.692 364.126 391.935 349.612 391.935 349.612L410.33 354.353Z" fill="black"/>
<path id="Path 67" d="M413.176 339.155L418.932 341.055C418.932 341.055 421.563 351.19 421.563 356.604C421.563 362.018 425.229 362.55 425.229 362.55C425.229 362.55 429.247 367.299 427.129 370.757C425.011 374.215 424.165 382.82 424.165 382.82C424.165 382.82 424.858 399.243 421.714 401.513C418.57 403.783 417.867 409.207 417.867 409.207C417.867 409.207 412.101 419.513 412.282 421.963C412.463 424.413 404.237 441.007 404.237 441.007C404.237 441.007 408.264 420.386 384.837 411.477C384.837 411.477 384.666 404.477 386.414 402.558C388.162 400.639 390.888 399.765 389.178 390.068C387.468 380.371 388.684 368.782 388.684 366.455C388.684 364.128 393.927 349.614 393.927 349.614L413.176 339.155Z" fill="white"/>
<path id="Path 68" opacity="0.1" d="M286.044 683.826C286.044 683.826 295.219 678.06 301.244 682.249C307.269 686.438 286.044 683.826 286.044 683.826Z" fill="black"/>
<path id="Path 69" opacity="0.1" d="M357.338 665.994C357.338 665.994 365.459 664.949 372.279 672.294C379.099 679.639 357.338 665.994 357.338 665.994Z" fill="black"/>
<g id="Group 1" opacity="0.1">
<path id="Path 70" opacity="0.1" d="M369.221 206.643C368.053 207.65 366.552 208.372 365.773 209.711C365.108 210.86 365.089 212.276 364.557 213.511C364.025 214.746 362.477 215.753 361.403 214.974C361.156 206.425 356.939 198.399 351.762 191.56C350.315 189.496 348.555 187.67 346.547 186.146C344.512 184.618 341.98 183.905 339.447 184.146C336.597 184.535 334.09 186.473 331.212 186.711C327.412 187.034 324.003 184.403 320.232 184.27C318.699 184.285 317.188 184.628 315.799 185.275C314.41 185.922 313.175 186.859 312.177 188.022C310.194 190.361 308.722 193.088 307.855 196.029C306.362 200.492 305.549 205.154 305.442 209.859C305.385 212.509 305.142 215.815 302.687 216.802C302.744 217.504 302.744 218.209 302.687 218.911C305.157 217.961 305.404 214.618 305.461 211.958C305.567 207.253 306.38 202.591 307.874 198.128C308.741 195.184 310.213 192.453 312.196 190.111C313.196 188.951 314.431 188.017 315.82 187.372C317.209 186.727 318.72 186.385 320.251 186.369C324.051 186.502 327.47 189.124 331.231 188.81C334.08 188.572 336.607 186.625 339.466 186.245C341.999 186.004 344.531 186.717 346.566 188.245C348.574 189.769 350.334 191.595 351.781 193.659C356.958 200.488 361.175 208.495 361.422 217.059C362.495 217.847 364.044 216.822 364.576 215.606C365.108 214.39 365.127 212.965 365.792 211.806C366.571 210.467 368.072 209.754 369.24 208.748C372.204 206.193 372.94 201.89 372.83 197.986V197.625C372.65 201.011 371.747 204.454 369.221 206.643Z" fill="black"/>
<path id="Path 71" opacity="0.1" d="M299.104 205.969C296.919 203.569 293.937 201.961 291.933 199.415C290.245 197.162 289.282 194.449 289.169 191.636C288.87 195.151 289.852 198.656 291.933 201.505C293.933 204.06 296.92 205.665 299.104 208.068C301.202 210.419 302.461 213.398 302.685 216.541C302.83 214.629 302.588 212.706 301.973 210.89C301.357 209.073 300.382 207.399 299.104 205.969V205.969Z" fill="black"/>
<path id="Path 72" opacity="0.1" d="M374.683 177.294C374.123 179.621 373.125 181.834 372.669 184.18C372.399 185.748 372.301 187.34 372.375 188.929C372.407 188.023 372.505 187.121 372.669 186.229C373.125 183.873 374.122 181.67 374.683 179.343C375.009 178.06 375.115 176.73 374.996 175.411C374.937 176.045 374.833 176.675 374.683 177.294V177.294Z" fill="black"/>
</g>
<path id="Path 115" d="M780.519 373.368L780.804 373.074L780.519 373.368Z" fill="#FFB0B1"/>
<g id="virus">
<g id="coronavirus covid19 icon by Vexels">
<path id="Path 116" d="M840.43 275.595C836.671 274.132 831.464 278.323 828.166 285.153L817.846 281.24C821.25 271.744 822.555 261.624 821.674 251.576C820.792 241.527 817.744 231.789 812.739 223.031L818.525 219.659C822.594 224.72 827.56 227.244 830.701 225.45C834.57 223.24 834.201 215.316 829.884 207.75C825.567 200.184 818.925 195.844 815.056 198.05C811.556 200.05 811.533 206.735 814.764 213.596L808.882 217.024C801.011 206.044 790.132 197.576 777.555 192.643L779.243 186.732C783.764 187.316 787.505 186.181 788.223 183.746C789.108 180.746 785.071 176.912 779.207 175.181C773.343 173.45 767.87 174.481 766.985 177.481C766.185 180.196 769.422 183.591 774.394 185.495L772.829 190.967C759.388 186.819 745.011 186.807 731.563 190.933L727.906 180.906C733.606 177.799 736.973 173.359 735.765 169.95C734.277 165.75 726.414 164.705 718.202 167.615C709.99 170.525 704.543 176.289 706.031 180.488C707.378 184.288 713.953 185.495 721.279 183.532L724.867 193.381C712.249 198.758 701.487 207.72 693.915 219.157L680.391 213.331C682.191 207.091 681.401 201.577 678.127 200.039C674.094 198.144 667.827 203 664.117 210.885C660.407 218.77 660.678 226.698 664.711 228.593C668.362 230.308 673.842 226.481 677.597 219.893L690.264 225.347C685.244 234.962 682.533 245.613 682.344 256.457C682.154 267.302 684.493 278.041 689.174 287.825L680.274 291.84C677.901 287.948 674.674 285.74 672.325 286.704C669.431 287.891 668.967 293.439 671.287 299.097C673.607 304.755 677.833 308.379 680.727 307.197C683.346 306.123 683.967 301.472 682.342 296.404L691.397 292.04C700.275 307.7 714.847 319.335 732.084 324.526L730.166 332.367C723.698 331.785 718.434 333.61 717.547 337.116C716.453 341.435 722.412 346.67 730.858 348.809C739.304 350.948 747.036 349.181 748.13 344.861C749.12 340.951 744.321 336.298 737.139 333.861L739.008 326.201C755.903 329.444 773.4 326.33 788.139 317.457L791.7 322.939C788.29 325.964 786.689 329.531 788.054 331.672C789.734 334.309 795.277 333.784 800.435 330.498C805.593 327.212 808.41 322.41 806.73 319.773C805.208 317.385 800.522 317.598 795.821 320.097L792.321 314.709C802.081 307.832 809.923 298.575 815.101 287.816L825.825 291.882C824.453 298.23 825.617 303.682 828.988 304.989C833.14 306.605 839.068 301.334 842.228 293.215C845.388 285.096 844.582 277.211 840.43 275.595ZM783.542 208.712C785.248 208.712 786.916 209.218 788.334 210.166C789.753 211.114 790.859 212.461 791.511 214.037C792.164 215.613 792.335 217.348 792.002 219.021C791.669 220.694 790.848 222.231 789.642 223.438C788.435 224.644 786.898 225.465 785.225 225.798C783.552 226.131 781.817 225.96 780.241 225.307C778.665 224.655 777.318 223.549 776.37 222.13C775.422 220.712 774.916 219.044 774.916 217.338C774.916 215.05 775.825 212.856 777.443 211.239C779.06 209.621 781.254 208.712 783.542 208.712V208.712ZM708.258 267.535C706.304 267.535 704.394 266.956 702.769 265.87C701.144 264.784 699.878 263.241 699.13 261.436C698.382 259.631 698.187 257.644 698.568 255.728C698.949 253.811 699.89 252.051 701.272 250.669C702.654 249.287 704.414 248.346 706.331 247.965C708.247 247.584 710.234 247.779 712.039 248.527C713.844 249.275 715.387 250.541 716.473 252.166C717.559 253.791 718.138 255.701 718.138 257.655C718.138 258.952 717.882 260.237 717.386 261.436C716.889 262.635 716.161 263.724 715.244 264.641C714.326 265.558 713.237 266.286 712.038 266.782C710.839 267.279 709.554 267.534 708.257 267.534L708.258 267.535ZM708.258 219.527C708.258 217.027 708.999 214.582 710.388 212.503C711.777 210.424 713.751 208.803 716.061 207.846C718.371 206.889 720.913 206.638 723.365 207.126C725.818 207.613 728.071 208.817 729.839 210.585C731.607 212.353 732.811 214.606 733.299 217.059C733.787 219.511 733.537 222.053 732.58 224.363C731.623 226.673 730.002 228.648 727.923 230.037C725.844 231.426 723.4 232.167 720.899 232.167C717.546 232.167 714.331 230.835 711.96 228.465C709.589 226.094 708.257 222.879 708.257 219.526L708.258 219.527ZM736.582 312.685C734.082 312.685 731.637 311.944 729.559 310.554C727.48 309.165 725.859 307.191 724.902 304.881C723.945 302.571 723.695 300.029 724.183 297.577C724.671 295.124 725.875 292.872 727.643 291.104C729.411 289.336 731.663 288.132 734.116 287.644C736.568 287.156 739.11 287.406 741.42 288.363C743.73 289.32 745.704 290.941 747.093 293.019C748.483 295.098 749.224 297.543 749.224 300.043C749.224 301.703 748.897 303.347 748.261 304.881C747.626 306.415 746.695 307.808 745.521 308.982C744.347 310.156 742.953 311.087 741.419 311.722C739.885 312.357 738.241 312.684 736.581 312.684L736.582 312.685ZM754.994 251.928C753.04 251.928 751.13 251.349 749.505 250.263C747.88 249.177 746.614 247.634 745.866 245.829C745.118 244.024 744.923 242.037 745.304 240.121C745.685 238.204 746.626 236.444 748.008 235.062C749.39 233.68 751.15 232.739 753.067 232.358C754.983 231.977 756.97 232.172 758.775 232.92C760.58 233.668 762.123 234.934 763.209 236.559C764.295 238.184 764.874 240.094 764.874 242.048C764.874 243.346 764.618 244.63 764.122 245.829C763.625 247.028 762.897 248.117 761.98 249.035C761.062 249.952 759.973 250.68 758.774 251.176C757.575 251.673 756.291 251.928 754.993 251.928H754.994ZM778.73 307.416C777.024 307.416 775.356 306.91 773.938 305.962C772.52 305.014 771.414 303.667 770.761 302.09C770.109 300.514 769.938 298.78 770.271 297.107C770.604 295.433 771.425 293.896 772.632 292.69C773.838 291.484 775.375 290.662 777.049 290.33C778.722 289.997 780.456 290.168 782.032 290.821C783.608 291.474 784.956 292.579 785.903 293.998C786.851 295.416 787.357 297.084 787.357 298.79C787.357 299.923 787.134 301.045 786.7 302.091C786.266 303.138 785.631 304.089 784.829 304.89C784.028 305.691 783.077 306.326 782.03 306.759C780.984 307.192 779.862 307.415 778.729 307.415L778.73 307.416ZM795.682 275.305C792.577 275.305 789.541 274.384 786.96 272.659C784.378 270.934 782.365 268.482 781.177 265.613C779.989 262.744 779.678 259.588 780.284 256.542C780.889 253.497 782.385 250.699 784.58 248.503C786.776 246.308 789.574 244.812 792.619 244.207C795.665 243.601 798.821 243.912 801.69 245.1C804.559 246.288 807.011 248.301 808.736 250.883C810.461 253.464 811.382 256.5 811.382 259.605C811.382 261.667 810.976 263.708 810.187 265.613C809.397 267.518 808.241 269.249 806.783 270.706C805.325 272.164 803.594 273.32 801.689 274.109C799.784 274.898 797.743 275.304 795.681 275.304L795.682 275.305Z" fill="#19609D"/>
<path id="Ellipse 9" d="M795.682 275.305C804.352 275.305 811.381 268.276 811.381 259.606C811.381 250.936 804.352 243.907 795.682 243.907C787.012 243.907 779.983 250.936 779.983 259.606C779.983 268.276 787.012 275.305 795.682 275.305Z" fill="#328BD8" fill-opacity="0.21"/>
<path id="Path 117" d="M733.541 219.526C733.541 217.026 732.8 214.581 731.41 212.503C730.021 210.424 728.047 208.803 725.737 207.846C723.427 206.889 720.885 206.639 718.433 207.127C715.98 207.615 713.728 208.819 711.96 210.587C710.192 212.355 708.988 214.607 708.5 217.06C708.012 219.512 708.262 222.054 709.219 224.364C710.176 226.674 711.797 228.648 713.876 230.037C715.954 231.427 718.399 232.168 720.899 232.168C724.252 232.168 727.467 230.836 729.838 228.465C732.209 226.094 733.541 222.879 733.541 219.526V219.526Z" fill="#328BD8" fill-opacity="0.21"/>
<path id="Ellipse 10" d="M736.581 312.685C743.563 312.685 749.223 307.025 749.223 300.043C749.223 293.061 743.563 287.401 736.581 287.401C729.599 287.401 723.939 293.061 723.939 300.043C723.939 307.025 729.599 312.685 736.581 312.685Z" fill="#328BD8" fill-opacity="0.21"/>
<path id="Path 118" d="M754.993 232.171C753.039 232.171 751.129 232.75 749.504 233.836C747.879 234.922 746.613 236.465 745.865 238.27C745.117 240.075 744.922 242.062 745.303 243.979C745.684 245.895 746.625 247.656 748.007 249.037C749.389 250.419 751.149 251.36 753.065 251.741C754.982 252.122 756.969 251.927 758.774 251.179C760.579 250.431 762.122 249.165 763.208 247.54C764.294 245.915 764.873 244.005 764.873 242.051C764.873 239.431 763.832 236.918 761.979 235.065C760.126 233.212 757.613 232.171 754.993 232.171Z" fill="#328BD8" fill-opacity="0.21"/>
<path id="Path 119" d="M708.258 247.775C706.304 247.775 704.394 248.354 702.769 249.44C701.144 250.526 699.878 252.069 699.13 253.874C698.382 255.679 698.187 257.666 698.568 259.583C698.949 261.499 699.89 263.26 701.272 264.641C702.654 266.023 704.414 266.964 706.331 267.345C708.247 267.726 710.234 267.531 712.039 266.783C713.844 266.035 715.387 264.769 716.473 263.144C717.559 261.519 718.138 259.609 718.138 257.655C718.138 255.035 717.097 252.522 715.244 250.669C713.391 248.816 710.878 247.775 708.258 247.775Z" fill="#328BD8" fill-opacity="0.21"/>
<path id="Path 120" d="M778.729 290.163C777.023 290.163 775.355 290.669 773.937 291.617C772.518 292.565 771.413 293.912 770.76 295.489C770.108 297.065 769.937 298.799 770.27 300.472C770.603 302.146 771.424 303.683 772.631 304.889C773.837 306.095 775.374 306.917 777.047 307.249C778.721 307.582 780.455 307.411 782.031 306.758C783.607 306.105 784.955 305 785.902 303.581C786.85 302.163 787.356 300.495 787.356 298.789C787.356 297.656 787.133 296.534 786.699 295.488C786.266 294.441 785.63 293.49 784.829 292.689C784.028 291.888 783.077 291.253 782.03 290.819C780.984 290.386 779.862 290.163 778.729 290.163V290.163Z" fill="#328BD8" fill-opacity="0.21"/>
<path id="Path 121" d="M783.541 225.965C785.247 225.965 786.915 225.459 788.333 224.511C789.752 223.563 790.858 222.216 791.51 220.64C792.163 219.064 792.334 217.329 792.001 215.656C791.668 213.983 790.847 212.446 789.641 211.24C788.434 210.033 786.897 209.212 785.224 208.879C783.551 208.546 781.816 208.717 780.24 209.37C778.664 210.022 777.317 211.128 776.369 212.547C775.421 213.965 774.915 215.633 774.915 217.339C774.915 219.627 775.824 221.821 777.442 223.439C779.059 225.056 781.253 225.965 783.541 225.965Z" fill="#328BD8" fill-opacity="0.21"/>
</g>
</g>
<g id="virus_2">
<g id="coronavirus-covid19-icon-by-Vexels">
<path id="Path 116_2" d="M553.554 387.528C552.587 387.151 551.246 388.228 550.398 389.988L547.742 388.981C548.618 386.537 548.954 383.933 548.727 381.346C548.5 378.76 547.716 376.254 546.428 374L547.917 373.132C548.964 374.432 550.242 375.084 551.051 374.622C552.051 374.053 551.951 372.014 550.841 370.067C549.731 368.12 548.02 367.003 547.025 367.567C546.125 368.082 546.118 369.802 546.95 371.567L545.436 372.449C543.41 369.623 540.61 367.444 537.373 366.174L537.807 364.653C538.97 364.803 539.933 364.511 540.118 363.884C540.346 363.112 539.307 362.125 537.797 361.684C536.287 361.243 534.879 361.503 534.651 362.275C534.445 362.975 535.278 363.848 536.558 364.337L536.158 365.746C532.699 364.678 528.998 364.675 525.537 365.737L524.597 363.155C526.065 362.355 526.931 361.213 526.62 360.335C526.237 359.254 524.213 358.985 522.1 359.735C519.987 360.485 518.584 361.967 518.967 363.048C519.314 364.027 521.006 364.337 522.891 363.832L523.814 366.367C520.566 367.751 517.797 370.057 515.848 373.001L512.368 371.501C512.831 369.895 512.628 368.476 511.785 368.08C510.747 367.592 509.133 368.842 508.179 370.872C507.225 372.902 507.294 374.942 508.332 375.429C509.272 375.87 510.682 374.885 511.648 373.19L514.908 374.59C513.616 377.064 512.918 379.806 512.869 382.597C512.82 385.388 513.422 388.152 514.627 390.67L512.334 391.713C511.723 390.713 510.893 390.143 510.288 390.391C509.543 390.696 509.424 392.124 510.021 393.58C510.618 395.036 511.706 395.969 512.451 395.664C513.125 395.388 513.285 394.191 512.867 392.886L515.197 391.763C517.482 395.794 521.232 398.789 525.669 400.124L525.176 402.145C523.511 401.995 522.157 402.465 521.928 403.367C521.646 404.479 523.18 405.826 525.354 406.377C527.528 406.928 529.518 406.477 529.799 405.361C530.054 404.355 528.819 403.161 526.97 402.53L527.451 400.559C531.799 401.394 536.303 400.592 540.096 398.309L541.013 399.72C540.135 400.499 539.723 401.42 540.075 401.968C540.507 402.647 541.934 402.511 543.261 401.668C544.588 400.825 545.314 399.586 544.881 398.908C544.489 398.293 543.281 398.348 542.073 398.991L541.173 397.604C543.685 395.834 545.703 393.452 547.036 390.683L549.796 391.73C549.443 393.364 549.743 394.766 550.61 395.103C551.679 395.519 553.204 394.162 554.017 392.073C554.83 389.984 554.622 387.944 553.554 387.528ZM538.912 370.313C539.351 370.313 539.78 370.443 540.145 370.687C540.51 370.931 540.795 371.278 540.963 371.683C541.131 372.089 541.175 372.535 541.089 372.966C541.004 373.397 540.792 373.792 540.482 374.103C540.171 374.413 539.776 374.625 539.345 374.71C538.914 374.796 538.468 374.752 538.062 374.584C537.657 374.416 537.31 374.131 537.066 373.766C536.822 373.401 536.692 372.972 536.692 372.533C536.692 371.944 536.926 371.38 537.342 370.963C537.759 370.547 538.323 370.313 538.912 370.313V370.313ZM519.537 385.453C519.034 385.453 518.542 385.304 518.124 385.025C517.705 384.745 517.379 384.348 517.187 383.883C516.994 383.418 516.944 382.907 517.042 382.413C517.14 381.92 517.383 381.467 517.739 381.111C518.094 380.756 518.548 380.513 519.041 380.416C519.535 380.318 520.046 380.368 520.511 380.561C520.976 380.754 521.373 381.081 521.652 381.499C521.931 381.918 522.08 382.41 522.079 382.913C522.078 383.587 521.81 384.233 521.333 384.709C520.857 385.185 520.211 385.453 519.537 385.453V385.453ZM519.537 373.097C519.537 372.453 519.728 371.824 520.085 371.289C520.443 370.754 520.951 370.337 521.546 370.091C522.14 369.844 522.795 369.78 523.426 369.906C524.057 370.031 524.637 370.341 525.092 370.796C525.547 371.251 525.857 371.831 525.982 372.462C526.108 373.093 526.044 373.748 525.797 374.342C525.551 374.937 525.134 375.445 524.599 375.803C524.064 376.16 523.435 376.351 522.791 376.351C521.928 376.351 521.101 376.008 520.49 375.398C519.88 374.788 519.537 373.961 519.537 373.098V373.097ZM526.826 397.073C526.182 397.073 525.553 396.882 525.018 396.525C524.483 396.167 524.066 395.659 523.82 395.064C523.573 394.47 523.509 393.815 523.635 393.184C523.76 392.553 524.07 391.973 524.525 391.518C524.98 391.063 525.56 390.753 526.191 390.628C526.822 390.502 527.477 390.566 528.071 390.813C528.666 391.059 529.174 391.476 529.532 392.011C529.889 392.546 530.08 393.175 530.08 393.819C530.08 394.682 529.737 395.51 529.127 396.12C528.517 396.73 527.689 397.073 526.826 397.073V397.073ZM531.565 381.436C531.062 381.436 530.57 381.288 530.152 381.008C529.733 380.729 529.407 380.332 529.214 379.867C529.021 379.403 528.971 378.891 529.069 378.398C529.167 377.904 529.409 377.451 529.764 377.095C530.12 376.739 530.573 376.497 531.067 376.399C531.56 376.301 532.072 376.351 532.536 376.544C533.001 376.736 533.398 377.062 533.678 377.481C533.957 377.899 534.106 378.391 534.106 378.894C534.106 379.568 533.838 380.215 533.362 380.691C532.885 381.168 532.239 381.436 531.565 381.437V381.436ZM537.674 395.713C537.235 395.713 536.806 395.583 536.441 395.339C536.076 395.095 535.791 394.748 535.623 394.343C535.455 393.937 535.411 393.491 535.497 393.06C535.582 392.629 535.794 392.234 536.104 391.923C536.415 391.613 536.81 391.401 537.241 391.316C537.672 391.23 538.118 391.274 538.524 391.442C538.929 391.61 539.276 391.895 539.52 392.26C539.764 392.625 539.894 393.054 539.894 393.493C539.894 394.082 539.66 394.646 539.244 395.063C538.827 395.479 538.263 395.713 537.674 395.713ZM542.037 387.449C541.238 387.449 540.457 387.212 539.793 386.768C539.128 386.324 538.61 385.693 538.305 384.955C537.999 384.217 537.919 383.405 538.075 382.621C538.231 381.837 538.615 381.117 539.18 380.552C539.745 379.987 540.465 379.603 541.249 379.447C542.033 379.291 542.845 379.371 543.583 379.677C544.321 379.982 544.952 380.5 545.396 381.165C545.84 381.829 546.077 382.61 546.077 383.409C546.078 383.94 545.973 384.466 545.771 384.956C545.568 385.447 545.27 385.893 544.895 386.268C544.52 386.644 544.074 386.942 543.584 387.145C543.094 387.348 542.568 387.453 542.037 387.453V387.449Z" fill="#19609D"/>
<path id="Ellipse 9_2" d="M542.037 387.452C544.268 387.452 546.077 385.643 546.077 383.412C546.077 381.181 544.268 379.372 542.037 379.372C539.806 379.372 537.997 381.181 537.997 383.412C537.997 385.643 539.806 387.452 542.037 387.452Z" fill="#328BD8" fill-opacity="0.21"/>
<path id="Path 117_2" d="M526.044 373.101C526.044 372.457 525.853 371.828 525.496 371.293C525.138 370.758 524.63 370.341 524.035 370.095C523.441 369.848 522.786 369.784 522.155 369.91C521.524 370.035 520.944 370.345 520.489 370.8C520.034 371.255 519.724 371.835 519.599 372.466C519.473 373.097 519.537 373.752 519.784 374.346C520.03 374.941 520.447 375.449 520.982 375.807C521.517 376.164 522.146 376.355 522.79 376.355C523.653 376.355 524.481 376.012 525.091 375.402C525.701 374.792 526.044 373.964 526.044 373.101V373.101Z" fill="#328BD8" fill-opacity="0.21"/>
<path id="Ellipse 10_2" d="M526.827 397.074C528.624 397.074 530.081 395.617 530.081 393.82C530.081 392.023 528.624 390.566 526.827 390.566C525.03 390.566 523.573 392.023 523.573 393.82C523.573 395.617 525.03 397.074 526.827 397.074Z" fill="#328BD8" fill-opacity="0.21"/>
<path id="Path 118_2" d="M531.565 376.354C531.062 376.354 530.57 376.503 530.152 376.783C529.734 377.062 529.408 377.459 529.216 377.924C529.023 378.389 528.973 378.9 529.071 379.393C529.169 379.886 529.411 380.34 529.767 380.695C530.122 381.051 530.576 381.293 531.069 381.391C531.562 381.489 532.073 381.439 532.538 381.246C533.003 381.054 533.4 380.728 533.679 380.31C533.959 379.892 534.108 379.4 534.108 378.897C534.108 378.223 533.84 377.576 533.363 377.099C532.886 376.622 532.239 376.354 531.565 376.354Z" fill="#328BD8" fill-opacity="0.21"/>
<path id="Path 119_2" d="M519.537 380.368C519.034 380.368 518.542 380.517 518.124 380.797C517.706 381.076 517.38 381.473 517.188 381.938C516.995 382.403 516.945 382.914 517.043 383.407C517.141 383.9 517.383 384.354 517.739 384.709C518.094 385.065 518.548 385.307 519.041 385.405C519.534 385.503 520.046 385.453 520.51 385.26C520.975 385.068 521.372 384.742 521.651 384.324C521.931 383.906 522.08 383.414 522.08 382.911C522.08 382.237 521.812 381.59 521.335 381.113C520.858 380.636 520.211 380.368 519.537 380.368Z" fill="#328BD8" fill-opacity="0.21"/>
<path id="Path 120_2" d="M537.674 391.277C537.235 391.277 536.806 391.407 536.441 391.651C536.076 391.895 535.791 392.242 535.623 392.647C535.455 393.053 535.411 393.499 535.497 393.93C535.582 394.361 535.794 394.756 536.104 395.067C536.415 395.377 536.81 395.589 537.241 395.674C537.672 395.76 538.118 395.716 538.524 395.548C538.929 395.38 539.276 395.095 539.52 394.73C539.764 394.365 539.894 393.936 539.894 393.497C539.894 392.908 539.66 392.344 539.244 391.927C538.827 391.511 538.263 391.277 537.674 391.277V391.277Z" fill="#328BD8" fill-opacity="0.21"/>
<path id="Path 121_2" d="M538.912 374.754C539.351 374.754 539.78 374.624 540.145 374.38C540.51 374.136 540.795 373.789 540.963 373.384C541.131 372.978 541.175 372.532 541.089 372.101C541.004 371.67 540.792 371.275 540.482 370.964C540.171 370.654 539.776 370.442 539.345 370.357C538.914 370.271 538.468 370.315 538.062 370.483C537.657 370.651 537.31 370.936 537.066 371.301C536.822 371.666 536.692 372.095 536.692 372.534C536.692 373.123 536.926 373.687 537.342 374.104C537.759 374.52 538.323 374.754 538.912 374.754Z" fill="#328BD8" fill-opacity="0.21"/>
</g>
</g>
<g id="virus_3">
<g id="coronavirus-covid19-icon-by-Vexels_2">
<path id="Path 116_3" d="M160.516 109.498C157.995 108.517 154.502 111.328 152.29 115.909L145.368 113.284C147.651 106.915 148.527 100.127 147.935 93.3869C147.344 86.647 145.299 80.1152 141.942 74.241L145.823 71.979C148.553 75.373 151.883 77.066 153.99 75.863C156.59 74.381 156.34 69.063 153.442 63.992C150.544 58.921 146.091 56.006 143.496 57.492C141.147 58.834 141.133 63.317 143.296 67.919L139.351 70.219C134.072 62.8544 126.774 57.1749 118.339 53.866L119.471 49.901C122.503 50.293 125.013 49.531 125.494 47.901C126.088 45.889 123.38 43.317 119.446 42.156C115.512 40.995 111.846 41.685 111.246 43.697C110.709 45.518 112.881 47.797 116.215 49.072L115.166 52.745C106.151 49.9625 96.507 49.9545 87.4871 52.722L85.0441 45.987C88.8691 43.903 91.1261 40.925 90.3151 38.638C89.3151 35.821 84.0431 35.12 78.5351 37.072C73.0271 39.024 69.3711 42.89 70.3701 45.706C71.2701 48.256 75.6841 49.065 80.5971 47.748L83.0061 54.355C74.5428 57.9615 67.3244 63.973 62.2461 71.644L53.1751 67.736C54.3821 63.551 53.8521 59.852 51.6561 58.821C48.9561 57.55 44.7441 60.807 42.2561 66.096C39.7681 71.385 39.9501 76.702 42.6561 77.973C45.1051 79.123 48.7811 76.556 51.2991 72.137L59.7991 75.795C56.4323 82.2438 54.6135 89.388 54.4866 96.6617C54.3597 103.935 55.9283 111.139 59.0681 117.701L53.0971 120.394C51.5051 117.784 49.3411 116.303 47.7651 116.949C45.8241 117.749 45.5121 121.466 47.0651 125.261C48.6181 129.056 51.4561 131.487 53.3971 130.691C55.1541 129.971 55.5701 126.851 54.4801 123.451L60.5541 120.524C66.5084 131.028 76.2827 138.832 87.8441 142.314L86.5591 147.58C82.2211 147.19 78.6901 148.413 78.0951 150.765C77.3611 153.665 81.3581 157.173 87.0231 158.608C92.6881 160.043 97.8741 158.857 98.6081 155.96C99.2721 153.337 96.0531 150.216 91.2361 148.583L92.4901 143.445C103.822 145.62 115.558 143.531 125.444 137.58L127.833 141.257C125.546 143.286 124.472 145.679 125.387 147.115C126.514 148.884 130.232 148.531 133.687 146.328C137.142 144.125 139.036 140.903 137.909 139.134C136.888 137.534 133.745 137.675 130.592 139.351L128.245 135.737C134.792 131.124 140.051 124.915 143.524 117.699L150.717 120.426C149.797 124.684 150.578 128.337 152.839 129.217C155.624 130.301 159.6 126.765 161.719 121.317C163.838 115.869 163.301 110.582 160.516 109.498ZM122.359 64.638C123.503 64.638 124.622 64.9774 125.574 65.6131C126.525 66.2489 127.267 67.1525 127.705 68.2098C128.143 69.2671 128.257 70.4304 128.034 71.5528C127.811 72.6752 127.26 73.7061 126.45 74.5153C125.641 75.3245 124.61 75.8756 123.488 76.0988C122.365 76.3221 121.202 76.2075 120.145 75.7696C119.088 75.3316 118.184 74.59 117.548 73.6385C116.912 72.687 116.573 71.5684 116.573 70.424C116.573 69.6642 116.723 68.9118 117.013 68.2098C117.304 67.5078 117.73 66.87 118.268 66.3327C118.805 65.7954 119.443 65.3692 120.145 65.0784C120.847 64.7877 121.599 64.638 122.359 64.638V64.638ZM71.8591 104.092C70.5484 104.092 69.2671 103.703 68.1773 102.975C67.0875 102.247 66.2381 101.212 65.7365 100.001C65.2349 98.7901 65.1037 97.4577 65.3594 96.1721C65.6151 94.8866 66.2463 93.7058 67.1731 92.779C68.0999 91.8522 69.2807 91.2211 70.5662 90.9653C71.8517 90.7096 73.1842 90.8409 74.3951 91.3425C75.606 91.844 76.641 92.6934 77.3692 93.7832C78.0974 94.8731 78.4861 96.1543 78.4861 97.465C78.4861 99.2219 77.7884 100.907 76.5465 102.15C75.3045 103.392 73.62 104.091 71.8631 104.092H71.8591ZM71.8591 71.892C71.8583 70.215 72.3548 68.5755 73.2858 67.1807C74.2168 65.7859 75.5406 64.6985 77.0896 64.056C78.6386 63.4135 80.3434 63.2448 81.9883 63.5712C83.6332 63.8975 85.1444 64.7044 86.3308 65.8896C87.5172 67.0749 88.3254 68.5853 88.6534 70.2299C88.9813 71.8745 88.8142 73.5795 88.1732 75.1291C87.5321 76.6787 86.446 78.0035 85.0521 78.9358C83.6581 79.8682 82.019 80.3662 80.3421 80.367C78.0938 80.367 75.9376 79.4741 74.3476 77.8846C72.7575 76.2952 71.8639 74.1393 71.8631 71.891L71.8591 71.892ZM90.8591 134.376C89.1821 134.376 87.5427 133.879 86.1484 132.947C84.754 132.015 83.6672 130.691 83.0255 129.142C82.3837 127.592 82.2158 125.888 82.543 124.243C82.8701 122.598 83.6777 121.087 84.8635 119.901C86.0493 118.716 87.5601 117.908 89.2049 117.581C90.8497 117.254 92.5545 117.422 94.1038 118.063C95.6532 118.705 96.9774 119.792 97.9091 121.186C98.8408 122.581 99.3381 124.22 99.3381 125.897C99.3381 128.145 98.445 130.302 96.8553 131.892C95.2656 133.482 93.1095 134.375 90.8611 134.376H90.8591ZM103.206 93.624C101.895 93.624 100.614 93.2353 99.5243 92.5072C98.4345 91.779 97.5851 90.744 97.0835 89.5331C96.5819 88.3221 96.4507 86.9897 96.7064 85.7041C96.9621 84.4186 97.5933 83.2378 98.5201 82.311C99.4469 81.3842 100.628 80.753 101.913 80.4973C103.199 80.2416 104.531 80.3729 105.742 80.8745C106.953 81.376 107.988 82.2254 108.716 83.3152C109.444 84.4051 109.833 85.6863 109.833 86.997C109.833 88.7546 109.135 90.4402 107.892 91.683C106.649 92.9258 104.964 93.624 103.206 93.624V93.624ZM119.126 130.842C117.982 130.842 116.863 130.503 115.912 129.867C114.96 129.231 114.218 128.327 113.78 127.27C113.343 126.213 113.228 125.05 113.451 123.927C113.674 122.805 114.226 121.774 115.035 120.965C115.844 120.156 116.875 119.604 117.997 119.381C119.12 119.158 120.283 119.273 121.34 119.71C122.398 120.148 123.301 120.89 123.937 121.841C124.573 122.793 124.912 123.912 124.912 125.056C124.912 126.59 124.303 128.061 123.219 129.146C122.135 130.231 120.665 130.841 119.131 130.842H119.126ZM130.496 109.304C128.413 109.304 126.378 108.686 124.646 107.529C122.914 106.372 121.565 104.728 120.768 102.804C119.971 100.88 119.762 98.7623 120.168 96.7197C120.575 94.6771 121.578 92.8008 123.05 91.3282C124.523 89.8555 126.399 88.8526 128.442 88.4463C130.484 88.04 132.602 88.2486 134.526 89.0456C136.45 89.8426 138.094 91.1922 139.251 92.9239C140.408 94.6555 141.026 96.6914 141.026 98.774C141.026 101.565 139.918 104.241 137.945 106.216C135.973 108.19 133.297 109.3 130.506 109.303L130.496 109.304Z" fill="#19609D"/>
<path id="Ellipse 9_3" d="M130.502 109.304C136.318 109.304 141.032 104.59 141.032 98.774C141.032 92.9585 136.318 88.244 130.502 88.244C124.686 88.244 119.972 92.9585 119.972 98.774C119.972 104.59 124.686 109.304 130.502 109.304Z" fill="#328BD8" fill-opacity="0.21"/>
<path id="Path 117_3" d="M88.8221 71.891C88.8221 70.214 88.3248 68.5747 87.3931 67.1803C86.4614 65.786 85.1372 64.6992 83.5879 64.0575C82.0385 63.4157 80.3337 63.2478 78.6889 63.5749C77.0441 63.9021 75.5333 64.7097 74.3475 65.8955C73.1617 67.0813 72.3542 68.5921 72.027 70.2368C71.6998 71.8816 71.8677 73.5865 72.5095 75.1358C73.1512 76.6851 74.238 78.0094 75.6324 78.9411C77.0267 79.8727 78.6661 80.37 80.3431 80.37C82.5918 80.37 84.7485 79.4767 86.3386 77.8866C87.9287 76.2965 88.8221 74.1398 88.8221 71.891V71.891Z" fill="#328BD8" fill-opacity="0.21"/>
<path id="Ellipse 10_3" d="M90.8611 134.375C95.5439 134.375 99.3401 130.579 99.3401 125.896C99.3401 121.213 95.5439 117.417 90.8611 117.417C86.1783 117.417 82.3821 121.213 82.3821 125.896C82.3821 130.579 86.1783 134.375 90.8611 134.375Z" fill="#328BD8" fill-opacity="0.21"/>
<path id="Path 118_3" d="M103.211 80.373C101.9 80.373 100.619 80.7617 99.5293 81.4898C98.4395 82.218 97.5901 83.253 97.0885 84.464C96.5869 85.6749 96.4558 87.0073 96.7115 88.2928C96.9672 89.5784 97.5983 90.7592 98.5251 91.686C99.4519 92.6128 100.633 93.244 101.918 93.4997C103.204 93.7554 104.536 93.6241 105.747 93.1226C106.958 92.621 107.993 91.7716 108.721 90.6818C109.449 89.592 109.838 88.3107 109.838 87C109.838 85.2424 109.14 83.5568 107.897 82.314C106.654 81.0712 104.969 80.373 103.211 80.373V80.373Z" fill="#328BD8" fill-opacity="0.21"/>
<path id="Path 119_3" d="M71.8641 90.838C70.5534 90.838 69.2721 91.2267 68.1823 91.9549C67.0925 92.683 66.2431 93.7181 65.7415 94.929C65.2399 96.1399 65.1087 97.4724 65.3644 98.7579C65.6201 100.043 66.2513 101.224 67.1781 102.151C68.1049 103.078 69.2857 103.709 70.5712 103.965C71.8567 104.22 73.1892 104.089 74.4001 103.588C75.611 103.086 76.646 102.237 77.3742 101.147C78.1024 100.057 78.491 98.7757 78.491 97.465C78.491 95.7074 77.7928 94.0218 76.55 92.779C75.3072 91.5362 73.6217 90.838 71.8641 90.838V90.838Z" fill="#328BD8" fill-opacity="0.21"/>
<path id="Path 120_3" d="M119.131 119.27C117.987 119.27 116.868 119.609 115.916 120.245C114.965 120.881 114.223 121.785 113.785 122.842C113.348 123.899 113.233 125.062 113.456 126.185C113.679 127.307 114.231 128.338 115.04 129.147C115.849 129.957 116.88 130.508 118.002 130.731C119.125 130.954 120.288 130.839 121.345 130.402C122.403 129.964 123.306 129.222 123.942 128.271C124.578 127.319 124.917 126.2 124.917 125.056C124.917 123.521 124.307 122.05 123.222 120.965C122.137 119.88 120.666 119.27 119.131 119.27V119.27Z" fill="#328BD8" fill-opacity="0.21"/>
<path id="Path 121_3" d="M122.359 76.209C123.503 76.209 124.622 75.8697 125.574 75.2339C126.525 74.5981 127.267 73.6945 127.705 72.6372C128.143 71.58 128.257 70.4166 128.034 69.2942C127.811 68.1719 127.26 67.1409 126.45 66.3317C125.641 65.5225 124.61 64.9715 123.488 64.7482C122.365 64.5249 121.202 64.6395 120.145 65.0775C119.088 65.5154 118.184 66.257 117.548 67.2085C116.912 68.16 116.573 69.2786 116.573 70.423C116.573 71.9576 117.183 73.4293 118.268 74.5143C119.353 75.5994 120.825 76.209 122.359 76.209V76.209Z" fill="#328BD8" fill-opacity="0.21"/>
</g>
</g>
<g id="virus_4">
<g id="coronavirus-covid19-icon-by-Vexels_3">
<path id="Path 116_4" d="M517.567 160.966C515.906 160.32 513.605 162.172 512.148 165.189L507.588 163.46C509.092 159.264 509.669 154.792 509.279 150.352C508.89 145.912 507.543 141.609 505.331 137.739L507.888 136.249C509.688 138.485 511.881 139.601 513.268 138.808C514.978 137.832 514.816 134.33 512.907 130.987C510.998 127.644 508.064 125.726 506.355 126.702C504.807 127.586 504.798 130.54 506.226 133.571L503.626 135.086C500.148 130.234 495.34 126.492 489.783 124.312L490.529 121.7C492.529 121.958 494.18 121.456 494.497 120.381C494.888 119.056 493.104 117.361 490.513 116.596C487.922 115.831 485.504 116.286 485.113 117.611C484.759 118.811 486.19 120.311 488.387 121.152L487.696 123.572C481.757 121.739 475.403 121.734 469.461 123.557L467.847 119.124C470.367 117.751 471.854 115.789 471.32 114.283C470.662 112.427 467.188 111.965 463.559 113.251C459.93 114.537 457.522 117.084 458.18 118.939C458.78 120.619 461.68 121.152 464.918 120.284L466.506 124.638C460.929 127.012 456.172 130.971 452.825 136.024L446.849 133.449C447.649 130.692 447.295 128.255 445.849 127.576C444.067 126.739 441.296 128.885 439.658 132.369C438.02 135.853 438.139 139.356 439.92 140.194C441.533 140.952 443.955 139.261 445.614 136.349L451.214 138.759C448.996 143.007 447.798 147.714 447.714 152.506C447.63 157.297 448.664 162.043 450.732 166.366L446.798 168.14C445.749 166.42 444.323 165.44 443.285 165.87C442.006 166.394 441.801 168.846 442.826 171.346C443.851 173.846 445.719 175.446 446.997 174.923C448.154 174.448 448.429 172.393 447.71 170.154L451.71 168.226C455.633 175.146 462.072 180.287 469.689 182.581L468.843 186.05C465.985 185.793 463.659 186.599 463.267 188.15C462.784 190.059 465.417 192.372 469.149 193.317C472.881 194.262 476.298 193.481 476.781 191.573C477.219 189.845 475.098 187.789 471.924 186.713L472.75 183.328C480.216 184.761 487.947 183.385 494.46 179.464L496.034 181.886C494.527 183.223 493.82 184.799 494.423 185.745C495.165 186.91 497.615 186.678 499.894 185.226C502.173 183.774 503.418 181.652 502.676 180.487C502.004 179.432 499.933 179.526 497.856 180.63L496.31 178.249C500.623 175.21 504.088 171.12 506.376 166.366L511.115 168.166C510.509 170.966 511.023 173.378 512.515 173.958C514.35 174.672 516.969 172.343 518.365 168.758C519.761 165.173 519.406 161.68 517.567 160.966ZM492.43 131.412C493.184 131.412 493.921 131.636 494.548 132.054C495.175 132.473 495.663 133.069 495.952 133.765C496.24 134.462 496.316 135.228 496.169 135.968C496.022 136.707 495.659 137.386 495.125 137.92C494.592 138.453 493.913 138.816 493.174 138.963C492.434 139.11 491.668 139.034 490.971 138.746C490.275 138.457 489.679 137.969 489.26 137.342C488.842 136.715 488.618 135.978 488.618 135.224C488.618 134.213 489.02 133.243 489.735 132.529C490.449 131.814 491.419 131.412 492.43 131.412V131.412ZM459.163 157.404C458.299 157.404 457.455 157.148 456.737 156.668C456.019 156.188 455.46 155.507 455.129 154.709C454.799 153.911 454.712 153.033 454.881 152.186C455.049 151.339 455.465 150.561 456.076 149.951C456.686 149.34 457.464 148.924 458.311 148.756C459.158 148.587 460.036 148.674 460.834 149.004C461.632 149.335 462.313 149.894 462.793 150.612C463.273 151.33 463.529 152.175 463.529 153.038C463.529 154.196 463.069 155.306 462.25 156.125C461.431 156.944 460.321 157.404 459.163 157.404V157.404ZM459.163 136.19C459.163 135.085 459.491 134.005 460.104 133.087C460.718 132.168 461.591 131.452 462.611 131.029C463.632 130.606 464.755 130.496 465.839 130.711C466.922 130.927 467.918 131.459 468.699 132.24C469.48 133.021 470.012 134.017 470.228 135.1C470.443 136.184 470.333 137.307 469.91 138.328C469.487 139.348 468.771 140.221 467.852 140.835C466.934 141.448 465.854 141.776 464.749 141.776C463.268 141.776 461.847 141.188 460.799 140.14C459.752 139.093 459.163 137.672 459.163 136.191V136.19ZM471.679 177.354C470.574 177.354 469.494 177.026 468.576 176.413C467.657 175.799 466.941 174.926 466.518 173.906C466.095 172.885 465.985 171.762 466.2 170.678C466.416 169.595 466.948 168.599 467.729 167.818C468.51 167.037 469.506 166.505 470.589 166.289C471.673 166.074 472.796 166.184 473.817 166.607C474.837 167.03 475.71 167.746 476.324 168.665C476.937 169.583 477.265 170.663 477.265 171.768C477.265 172.502 477.121 173.228 476.84 173.906C476.559 174.584 476.148 175.2 475.629 175.719C475.111 176.237 474.495 176.649 473.817 176.93C473.139 177.211 472.413 177.355 471.679 177.355V177.354ZM479.815 150.507C478.951 150.507 478.107 150.251 477.389 149.771C476.671 149.291 476.112 148.61 475.781 147.812C475.451 147.014 475.364 146.136 475.533 145.289C475.701 144.442 476.117 143.664 476.728 143.054C477.338 142.443 478.116 142.027 478.963 141.859C479.81 141.69 480.688 141.777 481.486 142.107C482.284 142.438 482.965 142.997 483.445 143.715C483.925 144.433 484.181 145.278 484.181 146.141C484.181 146.714 484.068 147.282 483.849 147.812C483.63 148.342 483.308 148.823 482.903 149.229C482.497 149.634 482.016 149.956 481.486 150.176C480.956 150.395 480.388 150.508 479.815 150.508V150.507ZM490.306 175.024C489.552 175.024 488.815 174.8 488.188 174.382C487.561 173.963 487.073 173.367 486.784 172.671C486.496 171.974 486.42 171.208 486.567 170.468C486.714 169.729 487.077 169.05 487.611 168.517C488.144 167.983 488.823 167.62 489.562 167.473C490.302 167.326 491.068 167.402 491.765 167.69C492.461 167.979 493.057 168.467 493.476 169.094C493.894 169.721 494.118 170.458 494.118 171.212C494.118 172.223 493.716 173.193 493.001 173.908C492.287 174.622 491.317 175.024 490.306 175.024V175.024ZM497.797 160.835C496.425 160.835 495.084 160.428 493.943 159.666C492.802 158.904 491.913 157.82 491.388 156.553C490.863 155.285 490.726 153.89 490.993 152.545C491.261 151.199 491.922 149.963 492.892 148.993C493.862 148.023 495.098 147.362 496.444 147.094C497.789 146.827 499.184 146.964 500.452 147.489C501.719 148.014 502.803 148.903 503.565 150.044C504.327 151.185 504.734 152.526 504.734 153.898C504.734 154.81 504.555 155.712 504.207 156.554C503.858 157.396 503.347 158.162 502.702 158.806C502.058 159.451 501.292 159.962 500.45 160.311C499.608 160.659 498.705 160.838 497.794 160.838L497.797 160.835Z" fill="#19609D"/>
<path id="Ellipse 9_4" d="M497.794 160.838C501.625 160.838 504.731 157.732 504.731 153.901C504.731 150.07 501.625 146.964 497.794 146.964C493.963 146.964 490.857 150.07 490.857 153.901C490.857 157.732 493.963 160.838 497.794 160.838Z" fill="#328BD8" fill-opacity="0.21"/>
<path id="Path 117_4" d="M470.335 136.191C470.335 135.086 470.007 134.006 469.394 133.088C468.78 132.169 467.907 131.453 466.887 131.03C465.866 130.607 464.743 130.497 463.659 130.712C462.576 130.928 461.58 131.46 460.799 132.241C460.018 133.022 459.486 134.018 459.27 135.101C459.055 136.185 459.165 137.308 459.588 138.329C460.011 139.349 460.727 140.222 461.646 140.836C462.564 141.449 463.644 141.777 464.749 141.777C465.483 141.777 466.209 141.633 466.887 141.352C467.564 141.071 468.18 140.66 468.699 140.141C469.218 139.622 469.629 139.006 469.91 138.329C470.191 137.651 470.335 136.925 470.335 136.191V136.191Z" fill="#328BD8" fill-opacity="0.21"/>
<path id="Ellipse 10_4" d="M471.679 177.355C474.764 177.355 477.265 174.854 477.265 171.769C477.265 168.684 474.764 166.183 471.679 166.183C468.594 166.183 466.093 168.684 466.093 171.769C466.093 174.854 468.594 177.355 471.679 177.355Z" fill="#328BD8" fill-opacity="0.21"/>
<path id="Path 118_4" d="M479.815 141.78C478.952 141.78 478.107 142.036 477.389 142.516C476.671 142.996 476.112 143.677 475.781 144.475C475.451 145.273 475.364 146.151 475.533 146.998C475.701 147.845 476.117 148.623 476.728 149.233C477.338 149.844 478.116 150.26 478.963 150.428C479.81 150.597 480.688 150.51 481.486 150.18C482.284 149.849 482.965 149.29 483.445 148.572C483.925 147.854 484.181 147.01 484.181 146.146C484.181 144.988 483.721 143.878 482.902 143.059C482.083 142.24 480.973 141.78 479.815 141.78V141.78Z" fill="#328BD8" fill-opacity="0.21"/>
<path id="Path 119_4" d="M459.164 148.673C458.3 148.673 457.456 148.929 456.738 149.409C456.02 149.889 455.461 150.57 455.13 151.368C454.8 152.166 454.713 153.044 454.882 153.891C455.05 154.738 455.466 155.516 456.077 156.126C456.687 156.737 457.465 157.153 458.312 157.321C459.159 157.49 460.037 157.403 460.835 157.073C461.633 156.742 462.314 156.183 462.794 155.465C463.274 154.747 463.53 153.903 463.53 153.039C463.53 151.881 463.07 150.771 462.251 149.952C461.432 149.133 460.322 148.673 459.164 148.673V148.673Z" fill="#328BD8" fill-opacity="0.21"/>
<path id="Path 120_4" d="M490.303 167.403C489.549 167.403 488.812 167.627 488.185 168.045C487.558 168.464 487.07 169.06 486.781 169.756C486.493 170.453 486.417 171.219 486.564 171.959C486.711 172.698 487.074 173.377 487.608 173.91C488.141 174.444 488.82 174.807 489.559 174.954C490.299 175.101 491.065 175.025 491.762 174.737C492.458 174.448 493.054 173.96 493.473 173.333C493.891 172.706 494.115 171.969 494.115 171.215C494.115 170.204 493.713 169.234 492.999 168.52C492.284 167.805 491.314 167.403 490.303 167.403Z" fill="#328BD8" fill-opacity="0.21"/>
<path id="Path 121_4" d="M492.43 139.031C493.184 139.031 493.921 138.807 494.548 138.389C495.175 137.97 495.663 137.374 495.952 136.678C496.24 135.981 496.316 135.215 496.169 134.475C496.022 133.736 495.659 133.057 495.126 132.524C494.592 131.99 493.913 131.627 493.174 131.48C492.434 131.333 491.668 131.409 490.971 131.697C490.275 131.986 489.679 132.474 489.26 133.101C488.842 133.728 488.618 134.465 488.618 135.219C488.618 136.23 489.02 137.2 489.735 137.915C490.449 138.629 491.419 139.031 492.43 139.031Z" fill="#328BD8" fill-opacity="0.21"/>
</g>
</g>
</g>
<defs>
<linearGradient id="paint0_linear" x1="327.3" y1="735.976" x2="327.3" y2="151.53" gradientUnits="userSpaceOnUse">
<stop stop-color="#808080" stop-opacity="0.251"/>
<stop offset="0.54" stop-color="#808080" stop-opacity="0.122"/>
<stop offset="1" stop-color="#808080" stop-opacity="0.102"/>
</linearGradient>
</defs>
</svg>
