<svg xmlns="http://www.w3.org/2000/svg" xmlns:xlink="http://www.w3.org/1999/xlink" width="1093.27" height="782.306" viewBox="0 0 1093.27 782.306">
  <defs>
    <linearGradient id="linear-gradient" x1="0.5" y1="1" x2="0.5" gradientUnits="objectBoundingBox">
      <stop offset="0" stop-color="gray" stop-opacity="0.251"/>
      <stop offset="0.54" stop-color="gray" stop-opacity="0.122"/>
      <stop offset="1" stop-color="gray" stop-opacity="0.102"/>
    </linearGradient>
  </defs>
  <g id="Covidsvg" transform="translate(-605.28 -114)">
    <g id="undraw_medicine_b1ol" transform="translate(593.52 114.006)">
      <ellipse id="Ellipse_1" data-name="Ellipse 1" cx="97.44" cy="15.65" rx="97.44" ry="15.65" transform="translate(269.94 751)" fill="#328bd8" opacity="0.1"/>
      <path id="Path_1" data-name="Path 1" d="M61.08,396.83H162.57V535.16H68.51c-.25,1.42-.49,2.85-.75,4.28h94.81V651c-.17-.05-.32-.11-.48-.17-2.68-1.06-5.34-2.18-8-3.38l-1.7-.77q-4-1.89-8-4c-.93-.49-1.86-1-2.78-1.52A166.42,166.42,0,0,1,101.73,610c-.34-.33-.66-.68-1-1-1.62-1.76-3.21-3.54-4.75-5.36l-1.7-2c-1.82-2.23-3.58-4.52-5.29-6.84-.25-.34-.49-.68-.75-1a148.881,148.881,0,0,1-17.2-31.1c-.14-.33-.26-.69-.39-1Q68.59,556.4,67,551c-.46-1.51-.9-3-1.28-4.57-.14-.46-.26-.91-.37-1.36C59.67,522.9,59,499.87,59,477v-8c0-9.25.11-18.56.27-27.86,0-2.41.1-4.81.15-7.23q.21-9.21.6-18.42c.06-1.71.14-3.41.23-5.11a28.943,28.943,0,0,1,.15-2.94C60.64,403.88,60.84,400.35,61.08,396.83Z" transform="translate(-47.24 -58.63)" fill="#328bd8" opacity="0.1"/>
      <path id="Path_2" data-name="Path 2" d="M162.57,242.81H106.9a422.013,422.013,0,0,1,29.61-40.76c8.27-10.16,17-20.06,26.06-29.6Z" transform="translate(-47.24 -58.63)" fill="#328bd8" opacity="0.1"/>
      <path id="Path_3" data-name="Path 3" d="M162.57,247.09V392.55H61.4c0-.42.07-.85.1-1.27.09-1.15.18-2.3.28-3.44.11-1.34.23-2.69.36-4s.27-2.91.42-4.36.29-2.92.46-4.37.32-2.9.5-4.34.34-2.9.53-4.34c.15-1.2.31-2.39.47-3.59.23-1.69.47-3.39.73-5.07a4.676,4.676,0,0,1,.11-.75,345.9,345.9,0,0,1,7.45-36.52,270.082,270.082,0,0,1,12.55-37,277.757,277.757,0,0,1,18.88-36.36Z" transform="translate(-47.24 -58.63)" fill="#328bd8" opacity="0.1"/>
      <path id="Path_4" data-name="Path 4" d="M186.8,396.82V535.16H403.57V396.82Zm0,142.61v118.8c1.24.26,2.47.51,3.69.72,1.66.32,3.31.61,5,.86.32.05.65.1,1,.13.66.11,1.34.2,2,.29,1.67.23,3.33.42,5,.57.79.08,1.59.15,2.39.21l1.93.15h0c1.05.08,2.09.14,3.12.17.64,0,1.28.06,1.94.08H220c.86,0,1.72,0,2.57-.08h.06a13.477,13.477,0,0,0,1.79-.08,4.192,4.192,0,0,0,.5,0,10.337,10.337,0,0,0,1.48-.07h.35l3.35-.26c1.1-.1,2.21-.23,3.33-.35l2.28-.27a199.453,199.453,0,0,0,27.45-5.84c20.22-5.64,40-13.53,60.21-19.31,26.13-7.45,55-11.11,80.25-2V539.43ZM403.57,242.81V58.64a278.671,278.671,0,0,0-70.43,8.26C278.25,80.69,229,110.6,186.8,148.8v94h10.88v4.27H186.8V392.55H403.57V247.08H242.35v-4.27ZM682,180.6c-13.58-.48-27.08-4.78-39.29-11.42-23.35-12.7-42-32.31-62.84-48.86-43.3-34.47-97-55.27-152.09-60.43V242.81H737.23L738,242Zm28.19-5,29.89,32.8V167c-10.01,1.24-18.78,4.19-29.85,8.56Zm29.89,512.13V539.43H676.39c-.17-.63-.34-1.27-.54-1.91.19.64.35,1.28.53,1.91H427.82V646.68c2.36,1.75,4.69,3.59,7,5.46h0c2.49,2,4.95,4.11,7.42,6.18l2.49,2.06c1.19,1,2.39,2,3.6,2.94q3.6,2.92,7.27,5.76c1.21,1,2.45,1.9,3.68,2.84a501.22,501.22,0,0,0,61.63,40.31q7.23,4,14.59,7.81c3.27,1.67,6.56,3.33,9.86,4.94q7.44,3.63,15,7h0a550.844,550.844,0,0,0,146,42.53q16.79,2.48,33.71,3.9V687.72h1ZM427.82,247.08V392.55h312.3V247.08Zm0,149.74V535.16h312.3V396.82Zm336.54-230V213l38.15-41.86q-18.96-3.06-38.15-4.37Zm0,230.05V535.16h303.75V396.82ZM1067,698.71l1.07-159.28H764.36V780a544.7,544.7,0,0,0,58.7-.7h.34q14-.88,27.87-2.56h.21a513.241,513.241,0,0,0,143.2-38.21m132-318.93c-1.14-2.69-2.33-5.36-3.54-8-2.26-5-4.65-9.86-7.11-14.72h-23.7V535.16h59.92c-.03-39.16-9.94-79.16-25.54-115.61Zm-34.35,119.88v137c16.88-16.18,31.14-34.69,41.41-55.85,12.35-25.48,18-53.07,18.46-81.17Zm0-182.92v36h21.48a390.012,390.012,0,0,0-21.45-36.05Zm-206-162.6c-1.58-.6-3.16-1.21-4.75-1.8a433.615,433.615,0,0,0-51.31-15.42l-58.38,64.07h0L770.77,242l.75.82H979.3a444.41,444.41,0,0,0-92.94-48.91Zm99.06,53.17H768.62l-4.26,3.9V392.55h303.79V324a432.8,432.8,0,0,0-82.73-76.92Z" transform="translate(-47.24 -58.63)" fill="#328bd8" opacity="0.1"/>
      <path id="Path_5" data-name="Path 5" d="M162.57,320.46v72.09H61.4c0-.42.07-.85.1-1.27.09-1.15.18-2.3.28-3.44.11-1.34.23-2.69.36-4s.27-2.91.42-4.36.29-2.92.46-4.37.32-2.9.5-4.34.34-2.9.53-4.34c.15-1.2.31-2.39.47-3.59.23-1.69.47-3.39.73-5.07a4.676,4.676,0,0,1,.11-.75,345.9,345.9,0,0,1,7.45-36.52Z" transform="translate(-47.24 -58.63)" fill="#328bd8" opacity="0.1"/>
      <path id="Path_6" data-name="Path 6" d="M61.08,396.83H162.57V535.16H68.51c-.25,1.42-.49,2.85-.75,4.28h94.81V651c-.17-.05-.32-.11-.48-.17-2.68-1.06-5.34-2.18-8-3.38l-1.7-.77q-4-1.89-8-4c-.93-.49-1.86-1-2.78-1.52A166.42,166.42,0,0,1,101.73,610c-.34-.33-.66-.68-1-1-1.62-1.76-3.21-3.54-4.75-5.36l-1.7-2c-1.82-2.23-3.58-4.52-5.29-6.84-.25-.34-.49-.68-.75-1a148.881,148.881,0,0,1-17.2-31.1c-.14-.33-.26-.69-.39-1Q68.59,556.4,67,551c-.46-1.51-.9-3-1.28-4.57-.14-.46-.26-.91-.37-1.36C59.67,522.9,59,499.87,59,477v-8c0-9.25.11-18.56.27-27.86,0-2.41.1-4.81.15-7.23q.21-9.21.6-18.42c.06-1.71.14-3.41.23-5.11a28.943,28.943,0,0,1,.15-2.94C60.64,403.88,60.84,400.35,61.08,396.83Z" transform="translate(-47.24 -58.63)" fill="#328bd8" opacity="0.1"/>
      <path id="Path_7" data-name="Path 7" d="M215.87,209.28V333.92H139.56V209.28h10.88v-42.2H195.1v42.2Z" fill="#328bd8" opacity="0.1"/>
      <rect id="Rectangle_2" data-name="Rectangle 2" width="76.3" height="138.33" transform="translate(139.57 338.19)" fill="#328bd8" opacity="0.1"/>
      <path id="Path_8" data-name="Path 8" d="M186.8,539.44h76.31v115a199.118,199.118,0,0,1-27.45,5.83l-2.28.28c-1.12.13-2.23.24-3.33.35s-2.24.19-3.35.26h-.35c-.48,0-1,.06-1.47.07h-.51c-.6,0-1.2.06-1.8.08h0c-.85.05-1.7.06-2.57.07h-7.08l-1.93-.07c-1,0-2.08-.11-3.12-.18h0l-1.92-.14-2.39-.22c-1.68-.15-3.35-.34-5-.57l-2-.28-1-.14c-1.67-.26-3.32-.54-5-.86-1.23-.21-2.45-.47-3.69-.72Z" transform="translate(-47.24 -58.63)" fill="#328bd8" opacity="0.1"/>
      <rect id="Rectangle_3" data-name="Rectangle 3" width="62.92" height="139.35" transform="translate(629.96 194.56)" fill="#328bd8" opacity="0.1"/>
      <path id="Path_9" data-name="Path 9" d="M692.89,338.19V476.53H380.58V416.86H546.93v35.2h83.03V338.19Z" fill="#328bd8" opacity="0.1"/>
      <path id="Path_10" data-name="Path 10" d="M741.12,687.76h-1v90.75q-16.9-1.43-33.7-3.89A550.866,550.866,0,0,1,560.36,732q-20.13-9.06-39.44-19.78a503.267,503.267,0,0,1-61.64-40.31q-7.36-5.64-14.53-11.54c-3.31-2.73-6.6-5.53-9.93-8.25-2.31-1.87-4.64-3.71-7-5.47V539.44H676.37c-.17-.64-.34-1.28-.52-1.91.19.63.37,1.27.54,1.91h63.73V687.7C740.46,687.71,740.79,687.74,741.12,687.76Z" transform="translate(-47.24 -58.63)" fill="#328bd8" opacity="0.1"/>
      <path id="Path_11" data-name="Path 11" d="M904.22,242.81h-41V230.07H881.6V192.12q2.39.87,4.76,1.79v36.16h17.86Z" transform="translate(-47.24 -58.63)" fill="#328bd8" opacity="0.1"/>
      <path id="Path_12" data-name="Path 12" d="M1003,392.55H801.72l.07.05-.09-.05H764.36V253.2h10.58v103h48.35v-61h39.94V247.09h41v48.15h39.94v61H1003Z" transform="translate(-47.24 -58.63)" fill="#328bd8" opacity="0.1"/>
      <path id="Path_13" data-name="Path 13" d="M764.36,396.82V535.16H1003V396.82ZM1067.78,698l.33-109.5H1003v-49H764.36V780a544.7,544.7,0,0,0,58.7-.7h.34q14-.88,27.87-2.56h.21a513.241,513.241,0,0,0,143.2-38.21" transform="translate(-47.24 -58.63)" fill="#328bd8" opacity="0.1"/>
      <path id="Path_14" data-name="Path 14" d="M1096.57,539.44h55.67c-.49,28.09-6.13,55.68-18.47,81.16-10.27,21.17-24.54,39.68-41.4,55.85v-88h4.2Z" transform="translate(-47.24 -58.63)" fill="#328bd8" opacity="0.1"/>
      <path id="Path_15" data-name="Path 15" d="M1152.27,535.16h-55.7V419.55h30.14C1142.31,456,1152.22,496,1152.27,535.16Z" transform="translate(-47.24 -58.63)" fill="#328bd8" opacity="0.1"/>
      <rect id="Rectangle_4" data-name="Rectangle 4" width="33.71" height="43.69" transform="translate(659.18 233.3)" fill="#328bd8" opacity="0.1"/>
      <rect id="Rectangle_5" data-name="Rectangle 5" width="33.71" height="10.06" transform="translate(659.18 323.86)" fill="#328bd8" opacity="0.1"/>
      <rect id="Rectangle_6" data-name="Rectangle 6" width="33.71" height="29.35" transform="translate(659.18 338.19)" fill="#328bd8" opacity="0.1"/>
      <rect id="Rectangle_7" data-name="Rectangle 7" width="33.71" height="43.69" transform="translate(659.18 414.42)" fill="#328bd8" opacity="0.1"/>
      <rect id="Rectangle_8" data-name="Rectangle 8" width="33.71" height="43.69" transform="translate(659.18 504.98)" fill="#328bd8" opacity="0.1"/>
      <path id="Path_16" data-name="Path 16" d="M740.12,687.7a5.542,5.542,0,0,1,1,.06h-1v10.15h-33.7V654.17h33.7Z" transform="translate(-47.24 -58.63)" fill="#328bd8" opacity="0.1"/>
      <path id="Path_17" data-name="Path 17" d="M740.12,744.71v33.75q-16.9-1.43-33.7-3.89V744.71Z" transform="translate(-47.24 -58.63)" fill="#328bd8" opacity="0.1"/>
      <rect id="Rectangle_9" data-name="Rectangle 9" width="144.47" height="3.21" transform="translate(380.58 473.32)" fill="#328bd8" opacity="0.1"/>
      <rect id="Rectangle_10" data-name="Rectangle 10" width="144.47" height="12.3" transform="translate(380.58 480.8)" fill="#328bd8" opacity="0.1"/>
      <rect id="Rectangle_11" data-name="Rectangle 11" width="144.47" height="19.78" transform="translate(380.58 533.42)" fill="#328bd8" opacity="0.1"/>
      <path id="Path_18" data-name="Path 18" d="M572.28,652.15v19.78h-113q-7.36-5.62-14.54-11.54c-3.31-2.73-6.59-5.53-9.93-8.24Z" transform="translate(-47.24 -58.63)" fill="#328bd8" opacity="0.1"/>
      <path id="Path_19" data-name="Path 19" d="M572.28,712.24V732H560.35q-20.11-9.07-39.43-19.79Z" transform="translate(-47.24 -58.63)" fill="#328bd8" opacity="0.1"/>
      <rect id="Rectangle_12" data-name="Rectangle 12" width="28.44" height="28.44" transform="translate(775.83 351.6)" fill="#328bd8" opacity="0.1"/>
      <rect id="Rectangle_13" data-name="Rectangle 13" width="28.44" height="28.44" transform="translate(160.05 219.09)" fill="#328bd8" opacity="0.1"/>
      <rect id="Rectangle_14" data-name="Rectangle 14" width="28.44" height="28.44" transform="translate(160.05 285.15)" fill="#328bd8" opacity="0.1"/>
      <rect id="Rectangle_15" data-name="Rectangle 15" width="28.44" height="28.44" transform="translate(160.05 351.21)" fill="#328bd8" opacity="0.1"/>
      <rect id="Rectangle_16" data-name="Rectangle 16" width="28.44" height="28.44" transform="translate(160.05 417.26)" fill="#328bd8" opacity="0.1"/>
      <rect id="Rectangle_17" data-name="Rectangle 17" width="28.44" height="28.44" transform="translate(160.05 483.32)" fill="#328bd8" opacity="0.1"/>
      <rect id="Rectangle_18" data-name="Rectangle 18" width="28.44" height="28.44" transform="translate(160.05 549.38)" fill="#328bd8" opacity="0.1"/>
      <rect id="Rectangle_19" data-name="Rectangle 19" width="28.44" height="28.44" transform="translate(884.4 351.6)" fill="#328bd8" opacity="0.1"/>
      <rect id="Rectangle_20" data-name="Rectangle 20" width="28.44" height="28.44" transform="translate(775.83 421.75)" fill="#328bd8" opacity="0.1"/>
      <rect id="Rectangle_21" data-name="Rectangle 21" width="28.44" height="28.44" transform="translate(884.4 421.75)" fill="#328bd8" opacity="0.1"/>
      <rect id="Rectangle_22" data-name="Rectangle 22" width="28.44" height="28.44" transform="translate(775.83 491.89)" fill="#328bd8" opacity="0.1"/>
      <rect id="Rectangle_23" data-name="Rectangle 23" width="28.44" height="28.44" transform="translate(884.4 491.89)" fill="#328bd8" opacity="0.1"/>
      <rect id="Rectangle_24" data-name="Rectangle 24" width="28.44" height="28.44" transform="translate(775.83 562.04)" fill="#328bd8" opacity="0.1"/>
      <rect id="Rectangle_25" data-name="Rectangle 25" width="28.44" height="28.44" transform="translate(884.4 562.04)" fill="#328bd8" opacity="0.1"/>
      <rect id="Rectangle_26" data-name="Rectangle 26" width="28.44" height="28.44" transform="translate(775.83 632.19)" fill="#328bd8" opacity="0.1"/>
      <rect id="Rectangle_27" data-name="Rectangle 27" width="28.44" height="28.44" transform="translate(884.4 632.19)" fill="#328bd8" opacity="0.1"/>
      <path id="Path_20" data-name="Path 20" d="M775.83,720.67V702.33h28.43v15.73Z" fill="#328bd8" opacity="0.1"/>
      <path id="Path_21" data-name="Path 21" d="M65.24,357v16.27h97.33V357Zm9.7,15.25H67V358h8Zm9.69,0h-8V358h8Zm9.67,0h-8V358h8Zm9.69,0H96V358h8Zm9.68,0h-8V358h8Zm9.69,0h-8V358h8Zm9.69,0h-8V358h8Zm9.68,0h-8V358h8Zm9.68,0h-8V358h8Zm9.68,0h-8V358h8Z" transform="translate(-47.24 -58.63)" fill="#328bd8" opacity="0.1"/>
      <path id="Path_22" data-name="Path 22" d="M65.24,404.34v16.27h97.33V404.34Zm9.7,15.24H67V405.37h8Zm9.69,0h-8V405.37h8Zm9.67,0h-8V405.37h8Zm9.69,0H96V405.37h8Zm9.68,0h-8V405.37h8Zm9.69,0h-8V405.37h8Zm9.69,0h-8V405.37h8Zm9.68,0h-8V405.37h8Zm9.68,0h-8V405.37h8Zm9.68,0h-8V405.37h8Z" transform="translate(-47.24 -58.63)" fill="#328bd8" opacity="0.1"/>
      <path id="Path_23" data-name="Path 23" d="M65.24,451.7V468h97.33V451.7Zm9.7,15.24H67V452.72h8Zm9.69,0h-8V452.72h8Zm9.67,0h-8V452.72h8Zm9.69,0H96V452.72h8Zm9.68,0h-8V452.72h8Zm9.69,0h-8V452.72h8Zm9.69,0h-8V452.72h8Zm9.68,0h-8V452.72h8Zm9.68,0h-8V452.72h8Zm9.68,0h-8V452.72h8Z" transform="translate(-47.24 -58.63)" fill="#328bd8" opacity="0.1"/>
      <path id="Path_24" data-name="Path 24" d="M65.24,499.06v16.25h97.33V499.06Zm9.7,15.24H67V500.07h8Zm9.69,0h-8V500.07h8Zm9.67,0h-8V500.07h8Zm9.69,0H96V500.07h8Zm9.68,0h-8V500.07h8Zm9.69,0h-8V500.07h8Zm9.69,0h-8V500.07h8Zm9.68,0h-8V500.07h8Zm9.68,0h-8V500.07h8Zm9.68,0h-8V500.07h8Z" transform="translate(-47.24 -58.63)" fill="#328bd8" opacity="0.1"/>
      <path id="Path_25" data-name="Path 25" d="M65.66,546.41c.39,1.53.83,3.06,1.29,4.57v-3.55h8v14.22H70.67c.13.33.26.69.39,1h91.51V546.41Zm19,15.24h-8V547.43h8Zm9.67,0h-8V547.43h8Zm9.69,0H96V547.43h8Zm9.68,0h-8V547.43h8Zm9.69,0h-8V547.43h8Zm9.69,0h-8V547.43h8Zm9.68,0h-8V547.43h8Zm9.68,0h-8V547.43h8Zm9.68,0h-8V547.43h8Z" transform="translate(-47.24 -58.63)" fill="#328bd8" opacity="0.1"/>
      <path id="Path_26" data-name="Path 26" d="M88.26,593.77c.25.32.49.68.75,1H94.3v6.83c.57.68,1.13,1.36,1.71,2v-8.87h8V609h-3.24c.32.33.63.68,1,1H162.6V593.77ZM113.67,609h-8V594.79h8Zm9.69,0h-8V594.79h8Zm9.69,0h-8V594.79h8Zm9.68,0h-8V594.79h8Zm9.68,0h-8V594.79h8Zm9.68,0h-8V594.79h8Z" transform="translate(-47.24 -58.63)" fill="#328bd8" opacity="0.1"/>
      <path id="Path_27" data-name="Path 27" d="M141.65,641.12c.91.52,1.84,1,2.78,1.52v-.5h8v4.5l1.7.79v-5.29h8v8.65a2.5,2.5,0,0,0,.48.18v-9.85Z" transform="translate(-47.24 -58.63)" fill="#328bd8" opacity="0.1"/>
      <path id="Path_28" data-name="Path 28" d="M801.72,392.55Zm-61.6,295.14ZM675.85,537.52c.19.64.35,1.28.53,1.91h0C676.22,538.8,676.05,538.16,675.85,537.52Zm125.87-145Zm-604-149.74v4.27h44.67v-4.27Zm542.4,444.91ZM675.85,537.52c.19.64.35,1.28.53,1.91h0C676.22,538.8,676.05,538.16,675.85,537.52Zm125.87-145Zm-61.6,295.14ZM675.85,537.52c.19.64.35,1.28.53,1.91h0C676.22,538.8,676.05,538.16,675.85,537.52Z" transform="translate(-47.24 -58.63)" fill="#328bd8" opacity="0.1"/>
      <path id="Path_29" data-name="Path 29" d="M508.84,438.3s-3.94-.55-3.94-6.29-2.82-16.46-2.82-16.46h0c0-.05-2.44-18.67-5.81-21.63s-7.7-20.34-7.7-20.34-.74-9.43-2.25-11.46-3.55-7-6.56-14.09-15.56-12-15.56-12-22.69-13.16-29.12-17.45h0a9.862,9.862,0,0,1-1.63-1.23c-1.12-1.47-6-1.5-6-1.5a98.319,98.319,0,0,1-1.16-10.27,7.812,7.812,0,0,0-.05-1.08,34.6,34.6,0,0,0,15.21-18.82c.12-.38.22-.78.33-1.16a3.25,3.25,0,0,0,1.95-1.76c.58-1.29.59-2.8,1.31-4,.84-1.42,2.44-2.18,3.7-3.25,3.18-2.7,4-7.25,3.85-11.39-.1-3.35-.64-6.73-.43-10.06l.06-.84c.06-.5.13-1,.22-1.48.49-2.48,1.56-4.82,2.16-7.28s.66-5.23-.74-7.35c-2.05-3.11-6.32-3.73-10.07-4.05-4.25-.36-8.05.11-10.77-3.42a38.391,38.391,0,0,0-4.28-5.17c-.56-.52-6-3.84-6-4.06a24.31,24.31,0,0,0-16.95-1.3c-2.82.82-5.48,2.16-8.34,2.83-6.17,1.46-13.27-.12-18.51,3.41-2.92,2-4.67,5.18-6.31,8.28q-2,3.83-4.06,7.65c-2.21,4.19-4.46,8.45-5.39,13.09a20.778,20.778,0,0,0-.36,3.06h0v1.63a5.379,5.379,0,0,0,.06,1c.06.31.05.41.08.62s.08.68.14,1,.18.88.3,1.32c.05.19.12.37.18.55.1.34.22.67.35,1,.07.17.14.35.22.52a9.355,9.355,0,0,0,.51,1c.08.14.14.27.22.4a13.273,13.273,0,0,0,.92,1.34c2.14,2.67,5.29,4.37,7.62,6.87v1.12A34.23,34.23,0,0,0,389,303.75c0,.38.05.77.07,1.15a57.222,57.222,0,0,1-.11,8.91,4.2,4.2,0,0,0-3.32-1.48,4.789,4.789,0,0,0-1.28.11l-.09-.07h0v.09c-2.2.54-4.91,2.83-7.5,9.34,0,0-7.88,8.88-13.88,8.51s-21.19,9.24-21.19,9.24-14.82,9.62-18,19.42a136.859,136.859,0,0,1-6.38,16.28L299,413h0l-3.38,29.95s1.87,13.32,1.5,15.35,7.69,20.34,7.69,20.34,26.63,46.79,37.51,49.19l.78-.55a6.38,6.38,0,0,0,1.47.55l2.24-1.58a24.41,24.41,0,0,1-.17,5.28c-1.5,4.62.56,34.77,3.18,40.68s1.69,83.4,1.69,83.4l-.37,6.84a2.9,2.9,0,0,0,.09.6l-.09,1.62.27.14a19.26,19.26,0,0,1-.27,6.51c-.94,3-1.32,11.48-1.32,11.48s-7.49,47.88-3.94,57.5,6.57,20.16,6.57,20.16,3.75,12,.18,14.05S338.91,780,341,785c1.9,4.62,9.11,17,10.18,18.81l-.09.95-1.47,15.93a20,20,0,0,0,1.69,6.08c1.61,3.47,4.74,7.07,10.69,6.68,1-.07,2.16-.19,3.28-.34,10.89-1.46,24.3-6.32,24.3-6.32a9.908,9.908,0,0,1-1.9-1.57h0a5.49,5.49,0,0,1-1.67-4c.16-2.9-5.27-16.72-6.62-20.12-.21-.49-.32-.77-.32-.77s12.38-12.94,10.32-24.41c0,0-13.7-8-9.19-12.39s12.57-17,12.57-17,.37-47.15,0-54.19a58.3,58.3,0,0,1,.69-14.63c.15-.73.33-1.44.52-2.14A130.541,130.541,0,0,0,412.82,677c2.3,0,4.64,0,7-.14q0,1,.09,2.16c.52,11.68,1.49,32.16,2.28,39.77,1.12,10.91,7.31,40.31,7.31,40.31s-11.81,7.58,2.06,26.26c0,0,0,6.77-.92,7.75h0a84.778,84.778,0,0,0-2.37,9.76c-.58,3.52-.82,7.08.12,8.93,2.25,4.42,15.75,4.06,15.75,4.06h0l.33-.06a19.351,19.351,0,0,1,14.29,4.31c5.13,4.12,24.6,2.31,35.14,1,4.13-.52,6.89-1,6.89-1a4,4,0,0,0,.14-1.44h0c-.11-2.59-2.14-8.27-15.9-13.34,0,0-12.94-8.7-12.76-16.28H470.5a14.106,14.106,0,0,1,1.79,0s-5.07-18.5-3-20-4.13-22-4.13-22-3.55-34.4-3.74-36.81a21,21,0,0,1,.93-6.1l-.93-18.86s-.18-6.27,0-8.31a41.506,41.506,0,0,0-.43-5.29c-.09-.7-.18-1.43-.28-2.15,4.85-1.23,8-2.37,8-2.37l-.56-65.65c4.12-8,4.88-25.55,4.86-38,0-8-.36-13.92-.36-13.92l5.63-9.19s1.3-11-.76-13.41c-.91-1.09-.5-2.22.25-3.15A10.465,10.465,0,0,1,479,523s-.06-.09-.13-.22a9.934,9.934,0,0,1,1.25-.89s-2-3.1-.21-4.41c1.68,1.14,3.18,2,4.32,2.7-.08.73-.16,1.15-.16,1.15l.48-1c1.1.62,1.77,1,1.77,1s8.82-17.57,8.63-20.16,6-13.5,6-13.5.75-5.73,4.13-8.13,2.62-19.79,2.62-19.79.94-9.06,3.19-12.76S508.84,438.3,508.84,438.3Zm-168.76-7.71.17,4.19-1.72-2.77Z" transform="translate(-47.24 -58.63)" fill="url(#linear-gradient)"/>
      <path id="Path_30" data-name="Path 30" d="M486.8,513.74l-2.16,9.2s-17.3-8.83-20.42-20.05,5.22-15.48,5.22-15.48l16.12,6.83Z" transform="translate(-47.24 -58.63)" fill="#fff"/>
      <path id="Path_31" data-name="Path 31" d="M486.8,513.74l-2.16,9.2s-17.3-8.83-20.42-20.05,5.22-15.48,5.22-15.48l16.12,6.83Z" transform="translate(-47.24 -58.63)" opacity="0.1"/>
      <path id="Path_32" data-name="Path 32" d="M389.71,826.85s-16,5.88-27,6.62c-5.84.39-8.91-3.19-10.49-6.64a20.1,20.1,0,0,1-1.65-6.05L352,804.93l.76-8.44,23.37-6.07,3.31,10.12.31.77c1.33,3.38,6.66,17.13,6.5,20a5.46,5.46,0,0,0,1.64,3.95,9.51,9.51,0,0,0,1.82,1.59Z" transform="translate(-47.24 -58.63)" fill="#fff"/>
      <path id="Path_33" data-name="Path 33" d="M499,818.79a4,4,0,0,1-.14,1.43s-34.22,5.71-41.22,0a18.54,18.54,0,0,0-14.4-4.22s-13.24.36-15.45-4c-.92-1.83-.68-5.38-.11-8.88a84.605,84.605,0,0,1,2.32-9.71l.53-.42,3.15-2.53,36.88-1.09h.28c-.18,7.54,12.52,16.19,12.52,16.19C496.85,810.56,498.84,816.21,499,818.79Z" transform="translate(-47.24 -58.63)" fill="#fff"/>
      <path id="Path_34" data-name="Path 34" d="M499,818.79a4.08,4.08,0,0,1-.15,1.43s-34.21,5.71-41.21,0A18.54,18.54,0,0,0,443.25,816s-13.25.36-15.45-4c-.92-1.84-.69-5.38-.12-8.88,5.1.51,13.15,1.78,16.31,4.81,4.78,4.61,12.88,9.21,17.85,9.57C465.73,817.75,489,818.49,499,818.79Z" transform="translate(-47.24 -58.63)" opacity="0.1"/>
      <path id="Path_35" data-name="Path 35" d="M389.71,826.85s-16,5.88-27,6.62c-5.84.39-8.91-3.19-10.48-6.65,4.07,1.37,9.72,2.81,12.69,1.49,3.52-1.56,16-2.57,23-3a9.85,9.85,0,0,0,1.79,1.54Z" transform="translate(-47.24 -58.63)" opacity="0.1"/>
      <path id="Path_36" data-name="Path 36" d="M413.45,353c-13.2-5.13-30.18-22.08-25.94-30a17.72,17.72,0,0,0,1.65-6.36,58.07,58.07,0,0,0,.12-9A123.255,123.255,0,0,0,387.51,293s41.21.93,38.81,7c-.7,1.78-.81,4.87-.62,8.33s.69,7.37,1.21,10.68c.72,4.54,1.44,8,1.44,8s-2.52,3.53-4,3.72S432.39,360.31,413.45,353Z" transform="translate(-47.24 -58.63)" fill="#8b5736"/>
      <path id="Path_37" data-name="Path 37" d="M379.72,801.31l-.31.34c-12.32-14.9-27.22,3.67-27.22,3.67l-.22-.39.76-8.44,23.37-6.07,3.31,10.12Z" transform="translate(-47.24 -58.63)" opacity="0.1"/>
      <path id="Path_38" data-name="Path 38" d="M470.85,790.42s-9-.19-13.8,4.05-28,.92-27,0a3.29,3.29,0,0,0,.52-1.52l3.15-2.53,36.88-1.09C470.74,790,470.85,790.42,470.85,790.42Z" transform="translate(-47.24 -58.63)" opacity="0.1"/>
      <path id="Path_39" data-name="Path 39" d="M395.05,673.41a27.822,27.822,0,0,0-1.52,5.13,58.708,58.708,0,0,0-.69,14.56c.37,7,0,53.91,0,53.91s-7.91,12.51-12.32,16.92,9,12.33,9,12.33c2,11.4-10.12,24.28-10.12,24.28-12.32-14.9-27.22,3.68-27.22,3.68s-8.1-14-10.12-19,7.91-8.46,11.4-10.49-.17-14-.17-14-2.95-10.49-6.45-20.06,3.86-57.21,3.86-57.21.38-8.46,1.29-11.41a19.08,19.08,0,0,0,.27-6.48c-.06-.73-.13-1.34-.18-1.75s-.09-.6-.09-.6l.14-.24,5-9.32S397.45,667.54,395.05,673.41Z" transform="translate(-47.24 -58.63)" fill="#328bd8"/>
      <path id="Path_40" data-name="Path 40" d="M470.85,789.32s-9-.19-13.8,4-28,.92-27,0,.92-7.73.92-7.73c-13.61-18.58-2-26.12-2-26.12s-6.08-29.25-7.18-40.1c-.77-7.58-1.72-27.95-2.23-39.58-.22-5-.35-8.44-.35-8.44l11.12-2.24,1.43-.29,26.82-5.38s.74,5,1.24,9.09a42.491,42.491,0,0,1,.42,5.27c-.18,2,0,8.26,0,8.26l.91,18.77a21.318,21.318,0,0,0-.91,6.07c.18,2.39,3.67,36.61,3.67,36.61s6.07,20.42,4,21.89S470.85,789.32,470.85,789.32Z" transform="translate(-47.24 -58.63)" fill="#328bd8"/>
      <path id="Path_41" data-name="Path 41" d="M426.32,300c-.7,1.78-.81,4.87-.62,8.33a34.25,34.25,0,0,1-36.42-.68A123.25,123.25,0,0,0,387.51,293S428.72,293.91,426.32,300Z" transform="translate(-47.24 -58.63)" opacity="0.1"/>
      <path id="Path_42" data-name="Path 42" d="M442.25,277.9a33.87,33.87,0,0,1-1.68,10.61,34.22,34.22,0,0,1-66.74-9.79v-.82a34.218,34.218,0,1,1,68.435,0Z" transform="translate(-47.24 -58.63)" fill="#8b5736"/>
      <path id="Path_43" data-name="Path 43" d="M413.45,353c-13.2-5.13-30.18-22.08-25.94-30a17.72,17.72,0,0,0,1.65-6.36l18.07,14.85,11.18,9.17,8.5-21.64c.72,4.54,1.44,8,1.44,8s-2.52,3.53-4,3.72S432.39,360.31,413.45,353Z" transform="translate(-47.24 -58.63)" opacity="0.1"/>
      <path id="Path_44" data-name="Path 44" d="M412.94,360,397.85,613.5l-19.68,1.29L327.21,467.8l8.36-174.51,1.76-36.87,22.66,18.61,11.19,9.17,8.75-22.27,16.27,14.18Z" fill="#328bd8"/>
      <path id="Path_45" data-name="Path 45" d="M395.05,673.41a27.822,27.822,0,0,0-1.52,5.13,145,145,0,0,1-41.26-12.89l-.27-.14.09-1.61.05-.84,5-9.32S397.45,667.54,395.05,673.41Z" transform="translate(-47.24 -58.63)" opacity="0.1"/>
      <path id="Path_46" data-name="Path 46" d="M430.56,678.58a101.246,101.246,0,0,1-11.06,1.26c-.22-5-.35-8.44-.35-8.44l11.12-2.24Z" transform="translate(-47.24 -58.63)" opacity="0.1"/>
      <path id="Path_47" data-name="Path 47" d="M459.76,672.58c-7.11,1.85-18.09,3.93-27.92,2.63l-.14-6.34,26.82-5.38S459.26,668.44,459.76,672.58Z" transform="translate(-47.24 -58.63)" opacity="0.1"/>
      <path id="Path_48" data-name="Path 48" d="M431.66,676.37c-41,7-78.55-13.07-78.55-13.07l.36-6.8s.93-77.09-1.65-83-4.59-35.88-3.13-40.48-5.33-73.58-5.33-73.58l-1.1-28L302,415.13l18-37.52a135.4,135.4,0,0,0,6.26-16.2c3.13-9.74,17.66-19.31,17.66-19.31s14.9-9.56,20.79-9.2,13.61-8.46,13.61-8.46c5.7-14.53,10.86-7.95,10.86-7.95a12.98,12.98,0,0,1-.28,2.15c-2,15.95,32.34,66.35,32.83,67.24h0L425,465.54l3.31,100.81Z" transform="translate(-47.24 -58.63)" opacity="0.1"/>
      <path id="Path_49" data-name="Path 49" d="M430.56,676.37c-41,7-78.56-13.07-78.56-13.07l.37-6.8s.93-77.09-1.66-83-4.59-35.88-3.12-40.48-5.33-73.58-5.33-73.58l-1.11-28-40.28-16.37,18-37.52a137.507,137.507,0,0,0,6.26-16.2c3.12-9.74,17.66-19.31,17.66-19.31s14.9-9.56,20.78-9.2,13.61-8.46,13.61-8.46c5.71-14.53,12-7.95,12-7.95,0,.69-.6,1-.28,2.15,4.4,15.47,31.24,66.35,31.73,67.24h0l3.31,79.66,3.31,100.81Z" transform="translate(-47.24 -58.63)" fill="#fff"/>
      <path id="Path_50" data-name="Path 50" d="M419.51,388.09c-4.41-1.84-27.77-28.51-27.77-28.51v-6.07c-.85-2-5.9-.78-10,.62l1.76-36.87,2,1.66C389.88,334.38,419,387.2,419.51,388.09Z" transform="translate(-47.24 -58.63)" opacity="0.1"/>
      <path id="Path_51" data-name="Path 51" d="M420.62,385.88c-4.42-1.84-27.78-28.51-27.78-28.51V351.3c-.85-2-5.9-.78-10,.62l1.77-36.87,2,1.66C391,332.17,420.13,385,420.62,385.88Z" transform="translate(-47.24 -58.63)" fill="#fff"/>
      <path id="Path_52" data-name="Path 52" d="M353.11,518.89c.55,0,28.51-2.94,28.51-2.94s16.93,33.29,15.82,41.39-3.12,15.27-9.93,14-36.65,1-36.65,1Z" transform="translate(-47.24 -58.63)" opacity="0.1"/>
      <path id="Path_53" data-name="Path 53" d="M352,516.68c.55,0,28.51-2.94,28.51-2.94s16.92,33.3,15.82,41.39-3.13,15.27-9.93,14-36.65,1-36.65,1Z" transform="translate(-47.24 -58.63)" fill="#fff"/>
      <path id="Path_54" data-name="Path 54" d="M373.07,501.05s25.66,13.79,26.21,18-13.06-1.84-16-2.57a36.615,36.615,0,0,0-5.89-.92l-19.61.53Z" transform="translate(-47.24 -58.63)" fill="#8b5736"/>
      <circle id="Ellipse_3" data-name="Ellipse 3" cx="2.7" cy="2.7" r="2.7" transform="translate(362.41 325.78)" opacity="0.1"/>
      <circle id="Ellipse_4" data-name="Ellipse 4" cx="2.7" cy="2.7" r="2.7" transform="translate(362.41 324.68)" fill="#3f3d56"/>
      <circle id="Ellipse_5" data-name="Ellipse 5" cx="2.7" cy="2.7" r="2.7" transform="translate(367.38 442.66)" opacity="0.1"/>
      <circle id="Ellipse_6" data-name="Ellipse 6" cx="2.7" cy="2.7" r="2.7" transform="translate(367.38 441.55)" fill="#3f3d56"/>
      <circle id="Ellipse_7" data-name="Ellipse 7" cx="2.7" cy="2.7" r="2.7" transform="translate(365.1 384.22)" opacity="0.1"/>
      <circle id="Ellipse_8" data-name="Ellipse 8" cx="2.7" cy="2.7" r="2.7" transform="translate(365.1 383.12)" fill="#3f3d56"/>
      <path id="Path_55" data-name="Path 55" d="M477.28,515s1.84,2.76,0,4.05.18,4.41.18,4.41-4.59,2.69-2.57,5.11.74,13.35.74,13.35l-5.52,9.14s.33,5.89.35,13.85c0,12.42-.73,29.88-4.77,37.84l.56,65.31s-19.33,7.06-35.51,4.91l-2.4-104.8s3.5-59.43,4.79-70.83a118.683,118.683,0,0,0,.92-17.85s-.55-17.84-2.4-26.12c0,0-2-35.87-2.2-45.8-.09-4.75.16-18.61.44-31.79.31-14.41.66-28,.66-28L426.9,318.9s3.65-.37,4.75,1.1a10.528,10.528,0,0,0,1.6,1.23h0c6.3,4.26,28.56,17.36,28.56,17.36s12.32,4.9,15.27,11.92,5,12,6.43,14,2.21,11.4,2.21,11.4,4.24,17.3,7.55,20.23S499,417.71,499,417.71l-29.25,23s-2.57,38.26-3.12,39.74S477.28,515,477.28,515Z" transform="translate(-47.24 -58.63)" fill="#fff"/>
      <path id="Path_56" data-name="Path 56" d="M478.39,515s1.83,2.76,0,4.05.17,4.41.17,4.41S474,526.18,476,528.6s.74,13.35.74,13.35l-5.52,9.14s.33,5.89.36,13.85c0,12.42-.73,29.88-4.77,37.84l.55,65.31S448,675.15,431.84,673l-2.39-104.8s3.5-59.43,4.79-70.83a117.579,117.579,0,0,0,.91-17.85s-.55-17.84-2.39-26.12c0,0-2-35.87-2.21-45.8-.09-4.75.17-18.61.44-31.79.31-14.41.66-28,.66-28l-4.82-29.27s4.82,0,5.93,1.49a9.489,9.489,0,0,0,1.6,1.23h0c6.3,4.26,28.57,17.36,28.57,17.36s12.31,4.9,15.26,11.92,5,12,6.44,14,2.2,11.4,2.2,11.4,4.24,17.3,7.55,20.23,5.7,21.53,5.7,21.53l-29.25,23s-2.57,38.26-3.13,39.74S478.39,515,478.39,515Z" transform="translate(-47.24 -58.63)" fill="#fff"/>
      <path id="Path_57" data-name="Path 57" d="M443.36,356.3,446,364l-13.9,14c.31-14.4.66-28,.66-28l-4.82-29.27s4.82,0,5.93,1.49a9.122,9.122,0,0,0,1.6,1.22h0l11.82,34.1Z" transform="translate(-47.24 -58.63)" opacity="0.1"/>
      <path id="Path_58" data-name="Path 58" d="M442.25,354.09l2.65,7.7-13.9,14c.31-14.41.66-28,.66-28l-4.83-29.27s4.83,0,5.93,1.49a10,10,0,0,0,1.6,1.23h0l11.83,34.09Z" transform="translate(-47.24 -58.63)" fill="#fff"/>
      <path id="Path_59" data-name="Path 59" d="M442.25,277.9a33.87,33.87,0,0,1-1.68,10.61,1.43,1.43,0,0,1-1.08-.27c-.26-9-4.69-17.45-10.14-24.64a25.89,25.89,0,0,0-5.5-5.7,10.76,10.76,0,0,0-7.46-2.11c-3,.41-5.65,2.45-8.68,2.71-4,.33-7.58-2.44-11.55-2.58a11.35,11.35,0,0,0-8.49,3.94,23.29,23.29,0,0,0-4.55,8.44,49.38,49.38,0,0,0-2.54,14.56c-.05,2.8-.32,6.31-2.92,7.33a14.94,14.94,0,0,0-3.77-11.41l-.06-.06v-.82a34.217,34.217,0,1,1,68.435,0Z" transform="translate(-47.24 -58.63)" opacity="0.1"/>
      <path id="Path_60" data-name="Path 60" d="M422.21,223.57a23.56,23.56,0,0,0-16.62-1.3c-2.77.82-5.38,2.15-8.19,2.82-6,1.45-13-.12-18.15,3.39-2.86,2-4.58,5.16-6.18,8.23l-4,7.62c-2.18,4.17-4.38,8.41-5.29,13s-.36,9.73,2.55,13.42c2.12,2.69,5.25,4.38,7.55,6.91a15,15,0,0,1,3.76,11.4c2.61-1,2.86-4.52,2.92-7.32a49.38,49.38,0,0,1,2.54-14.56,23.211,23.211,0,0,1,4.55-8.44,11.37,11.37,0,0,1,8.49-3.94c4,.14,7.59,2.9,11.55,2.57,3-.25,5.66-2.3,8.68-2.7a10.72,10.72,0,0,1,7.46,2.11,25.62,25.62,0,0,1,5.49,5.7c5.46,7.19,9.89,15.62,10.15,24.64,1.13.83,2.76-.25,3.32-1.53s.58-2.78,1.29-4c.82-1.41,2.39-2.16,3.62-3.22,3.12-2.69,3.9-7.22,3.78-11.33s-.92-8.28-.14-12.32c.47-2.48,1.53-4.8,2.11-7.25s.65-5.2-.72-7.31c-2-3.1-6.21-3.71-9.88-4-4.17-.36-7.9.1-10.56-3.41a38.3,38.3,0,0,0-4.2-5.14C427.56,227.09,422.21,223.79,422.21,223.57Z" transform="translate(-47.24 -58.63)" fill="#1c1b1c"/>
      <path id="Path_61" data-name="Path 61" d="M313.52,434.45l-10.45-19.32-3.31,29.81s1.84,13.24,1.47,15.27,7.54,20.23,7.54,20.23,26.13,46.54,36.8,48.94l36.05-25.76-9.56-12.14s-3.31-1.29-4.14,0c0,0-17.75-30.54-19.59-32.75s-1.48-6.62-1.48-6.62-2.76-2.94-1.84-5.7-5.33-12.33-5.33-12.33l5.7-5.33Z" transform="translate(-47.24 -58.63)" opacity="0.1"/>
      <path id="Path_62" data-name="Path 62" d="M303.62,412.93l-2.76,2.2-3.31,29.81s1.84,13.24,1.47,15.27,7.55,20.23,7.55,20.23,26.12,46.54,36.79,48.94l36.06-25.76-9.57-12.14s-3.31-1.29-4.14,0c0,0-17.75-30.54-19.59-32.75s-1.47-6.62-1.47-6.62-2.76-2.94-1.84-5.7-5.34-12.33-5.34-12.33l5.7-5.33Z" transform="translate(-47.24 -58.63)" fill="#fff"/>
      <path id="Path_63" data-name="Path 63" d="M474.89,529.71c2,2.43.74,13.34.74,13.34l-5.52,9.14s.33,5.9.35,13.85l-9.28,2.9a5.51,5.51,0,0,1-7.15-5.43l1.6-51.61,21.65,8.28c-1.84,1.28.18,4.42.18,4.42S472.87,527.28,474.89,529.71Z" transform="translate(-47.24 -58.63)" opacity="0.1"/>
      <path id="Path_64" data-name="Path 64" d="M476,528.6c2,2.43.74,13.35.74,13.35l-5.52,9.14s.33,5.89.36,13.85l-9.45,2.95a5.4,5.4,0,0,1-7-5.32l1.61-51.77,21.66,8.28c-1.85,1.28.17,4.41.17,4.41S474,526.18,476,528.6Z" transform="translate(-47.24 -58.63)" fill="#fff"/>
      <path id="Path_65" data-name="Path 65" d="M483.17,504s-1.47,9.39-5.15,9.94-5.33,15.19-9,14.67-1.24-13.61-1.11-16.15-4-13.06-.91-15.45,12.87,0,12.87,0Z" transform="translate(-47.24 -58.63)" fill="#8b5736"/>
      <path id="Path_66" data-name="Path 66" d="M491,431.69l6.94-14s2.76,10.67,2.76,16.37,3.86,6.26,3.86,6.26,4.23,5,2,8.64-3.13,12.7-3.13,12.7.73,17.29-2.58,19.68-4,8.1-4,8.1-6.08,10.85-5.89,13.43-8.46,20.05-8.46,20.05,4.23-21.71-20.42-31.09c0,0-.19-7.37,1.65-9.39s4.71-2.94,2.91-13.15-.52-22.41-.52-24.86,5.52-17.73,5.52-17.73Z" transform="translate(-47.24 -58.63)" opacity="0.1"/>
      <path id="Path_67" data-name="Path 67" d="M494,415.69l6.06,2s2.77,10.67,2.77,16.37,3.86,6.26,3.86,6.26,4.23,5,2,8.64-3.12,12.7-3.12,12.7.73,17.29-2.58,19.68-4.05,8.1-4.05,8.1-6.07,10.85-5.88,13.43-8.47,20.05-8.47,20.05,4.24-21.71-20.42-31.09c0,0-.18-7.37,1.66-9.39s4.71-2.94,2.91-13.15-.52-22.41-.52-24.86,5.52-17.73,5.52-17.73Z" transform="translate(-47.24 -58.63)" fill="#fff"/>
      <path id="Path_68" data-name="Path 68" d="M360.15,778.56s9.66-6.07,16-1.66S360.15,778.56,360.15,778.56Z" transform="translate(-47.24 -58.63)" opacity="0.1"/>
      <path id="Path_69" data-name="Path 69" d="M435.21,759.79s8.55-1.1,15.73,6.63S435.21,759.79,435.21,759.79Z" transform="translate(-47.24 -58.63)" opacity="0.1"/>
      <g id="Group_1" data-name="Group 1" opacity="0.1">
        <path id="Path_70" data-name="Path 70" d="M447.72,276.18c-1.23,1.06-2.81,1.82-3.63,3.23-.7,1.21-.72,2.7-1.28,4s-2.19,2.36-3.32,1.54c-.26-9-4.7-17.45-10.15-24.65a25.62,25.62,0,0,0-5.49-5.7,10.75,10.75,0,0,0-7.47-2.11c-3,.41-5.64,2.45-8.67,2.7-4,.34-7.59-2.43-11.56-2.57a11.32,11.32,0,0,0-8.48,3.95,23.16,23.16,0,0,0-4.55,8.43,49.439,49.439,0,0,0-2.54,14.56c-.06,2.79-.32,6.27-2.9,7.31a13.7,13.7,0,0,1,0,2.22c2.6-1,2.86-4.52,2.92-7.32a49.381,49.381,0,0,1,2.54-14.56,23.21,23.21,0,0,1,4.55-8.44,11.35,11.35,0,0,1,8.48-3.94c4,.14,7.6,2.9,11.56,2.57,3-.25,5.66-2.3,8.67-2.7a10.75,10.75,0,0,1,7.47,2.11,25.62,25.62,0,0,1,5.49,5.7c5.45,7.19,9.89,15.62,10.15,24.64,1.13.83,2.76-.25,3.32-1.53s.58-2.78,1.28-4c.82-1.41,2.4-2.16,3.63-3.22,3.12-2.69,3.9-7.22,3.78-11.33v-.38C451.33,270.25,450.38,273.88,447.72,276.18Z" transform="translate(-47.24 -58.63)"/>
        <path id="Path_71" data-name="Path 71" d="M373.9,275.47c-2.3-2.53-5.44-4.22-7.55-6.9a14.64,14.64,0,0,1-2.91-8.19,15.4,15.4,0,0,0,2.91,10.39c2.11,2.69,5.25,4.38,7.55,6.91a15,15,0,0,1,3.77,8.92,15,15,0,0,0-3.77-11.13Z" transform="translate(-47.24 -58.63)"/>
        <path id="Path_72" data-name="Path 72" d="M453.47,245.28c-.59,2.45-1.64,4.78-2.12,7.25a23.1,23.1,0,0,0-.31,5,19.418,19.418,0,0,1,.31-2.84c.48-2.48,1.53-4.8,2.12-7.25a12.3,12.3,0,0,0,.33-4.14,13.9,13.9,0,0,1-.33,1.98Z" transform="translate(-47.24 -58.63)"/>
      </g>
      <path id="Path_114" data-name="Path 114" d="M881.39,451Z" transform="translate(-47.24 -58.63)" fill="#ffb0b1"/>
      <path id="Path_115" data-name="Path 115" d="M880.74,451.71l.3-.31Z" transform="translate(-47.24 -58.63)" fill="#ffb0b1"/>
    </g>
    <g id="coronavirus-covid19-icon-by-Vexels" transform="translate(1208.415 358.752)">
      <path id="Path_116" data-name="Path 116" d="M241.673,165.417c-3.957-1.54-9.44,2.872-12.912,10.062L217.9,171.36a73.517,73.517,0,0,0-5.377-61.283l6.092-3.55c4.284,5.328,9.513,7.985,12.819,6.1,4.074-2.326,3.689-10.669-.86-18.634s-11.538-12.535-15.612-10.209c-3.688,2.106-3.709,9.143-.307,16.367l-6.192,3.609a73.688,73.688,0,0,0-32.982-25.669l1.777-6.223c4.759.615,8.7-.58,9.455-3.144.932-3.158-3.318-7.2-9.492-9.017s-11.936-.739-12.868,2.419c-.844,2.859,2.566,6.433,7.8,8.437L170.5,76.324a73.858,73.858,0,0,0-43.445-.035L123.21,65.728c6-3.271,9.546-7.946,8.274-11.535-1.567-4.421-9.845-5.522-18.491-2.458s-14.383,9.132-12.816,13.553c1.419,4,8.34,5.272,16.053,3.205l3.777,10.369A73.753,73.753,0,0,0,87.42,106L73.183,99.865c1.9-6.569,1.063-12.374-2.384-13.994-4.246-1.995-10.849,3.118-14.75,11.419s-3.62,16.648.625,18.643c3.843,1.806,9.613-2.224,13.567-9.161l13.336,5.742a73.544,73.544,0,0,0-1.148,65.777l-9.373,4.227c-2.5-4.1-5.9-6.422-8.369-5.407-3.046,1.249-3.536,7.09-1.093,13.047s6.892,9.772,9.938,8.523c2.758-1.131,3.412-6.027,1.7-11.363l9.533-4.594a73.652,73.652,0,0,0,42.836,34.2l-2.017,8.266c-6.81-.612-12.351,1.308-13.286,5-1.152,4.547,5.122,10.059,14.014,12.311s17.033.391,18.184-4.156c1.043-4.117-4.01-9.016-11.572-11.579l1.968-8.064A73.449,73.449,0,0,0,186.62,209.5l3.749,5.772c-3.59,3.185-5.275,6.94-3.839,9.194,1.769,2.777,7.6,2.223,13.035-1.236s8.4-8.515,6.627-11.292c-1.6-2.514-6.536-2.29-11.485.341l-3.685-5.673a73.78,73.78,0,0,0,23.983-28.313l11.29,4.281c-1.444,6.683-.219,12.418,3.33,13.8,4.372,1.7,10.612-3.848,13.939-12.4S246.044,167.119,241.673,165.417ZM181.781,95a9.082,9.082,0,1,1-9.082,9.082A9.082,9.082,0,0,1,181.781,95Zm-79.26,61.929a10.4,10.4,0,1,1,10.4-10.4A10.4,10.4,0,0,1,102.52,156.931Zm0-50.543A13.31,13.31,0,1,1,115.83,119.7,13.309,13.309,0,0,1,102.52,106.388Zm29.82,98.078a13.309,13.309,0,1,1,13.309-13.309A13.309,13.309,0,0,1,132.34,204.466ZM151.724,140.5a10.4,10.4,0,1,1,10.4-10.4A10.4,10.4,0,0,1,151.724,140.5Zm24.989,58.418a9.082,9.082,0,1,1,9.082-9.082A9.082,9.082,0,0,1,176.714,198.918Zm17.848-33.807a16.528,16.528,0,1,1,16.528-16.528A16.528,16.528,0,0,1,194.561,165.111Z" transform="translate(0 0)" fill="#19609d"/>
      <circle id="Ellipse_9" data-name="Ellipse 9" cx="16.528" cy="16.528" r="16.528" transform="translate(178.033 132.056)" fill="rgba(50,139,216,0.21)"/>
      <path id="Path_117" data-name="Path 117" d="M359.795,308.252a13.31,13.31,0,1,0-13.31,13.309A13.309,13.309,0,0,0,359.795,308.252Z" transform="translate(-230.656 -201.864)" fill="rgba(50,139,216,0.21)"/>
      <circle id="Ellipse_10" data-name="Ellipse 10" cx="13.309" cy="13.309" r="13.309" transform="translate(119.03 177.847)" fill="rgba(50,139,216,0.21)"/>
      <path id="Path_118" data-name="Path 118" d="M564.208,446.3a10.4,10.4,0,1,0,10.4,10.4A10.4,10.4,0,0,0,564.208,446.3Z" transform="translate(-412.483 -326.6)" fill="rgba(50,139,216,0.21)"/>
      <path id="Path_119" data-name="Path 119" d="M284.435,539.723a10.4,10.4,0,1,0,10.4,10.4A10.4,10.4,0,0,0,284.435,539.723Z" transform="translate(-181.915 -403.595)" fill="rgba(50,139,216,0.21)"/>
      <path id="Path_120" data-name="Path 120" d="M712.481,793.468a9.082,9.082,0,1,0,9.082,9.082A9.082,9.082,0,0,0,712.481,793.468Z" transform="translate(-535.767 -612.713)" fill="rgba(50,139,216,0.21)"/>
      <path id="Path_121" data-name="Path 121" d="M741.29,324.045a9.082,9.082,0,1,0-9.082-9.082A9.082,9.082,0,0,0,741.29,324.045Z" transform="translate(-559.509 -210.879)" fill="rgba(50,139,216,0.21)"/>
    </g>
    <g id="coronavirus-covid19-icon-by-Vexels-2" data-name="coronavirus-covid19-icon-by-Vexels" transform="translate(1054.42 201.921)">
      <path id="Path_116-2" data-name="Path 116" d="M149.774,109.111c-2.027-.789-4.834,1.471-6.613,5.153l-5.565-2.11a37.651,37.651,0,0,0-2.754-31.386l3.12-1.818c2.194,2.729,4.872,4.09,6.565,3.122,2.086-1.191,1.889-5.464-.441-9.543s-5.909-6.42-8-5.229c-1.889,1.079-1.9,4.683-.157,8.382l-3.171,1.848a37.739,37.739,0,0,0-16.891-13.146l.91-3.187c2.437.315,4.455-.3,4.842-1.61.477-1.617-1.7-3.685-4.862-4.618s-6.113-.379-6.59,1.239c-.432,1.464,1.314,3.294,3.995,4.321l-.843,2.953a37.826,37.826,0,0,0-22.25-.018L89.1,58.055c3.075-1.675,4.889-4.069,4.238-5.907-.8-2.264-5.042-2.828-9.47-1.259S76.5,55.565,77.307,57.83c.727,2.05,4.271,2.7,8.221,1.642l1.934,5.31a37.773,37.773,0,0,0-16.689,13.9l-7.292-3.142c.971-3.364.544-6.338-1.221-7.167-2.174-1.022-5.556,1.6-7.554,5.848s-1.854,8.526.32,9.548c1.968.925,4.923-1.139,6.948-4.692l6.83,2.941a37.665,37.665,0,0,0-.588,33.688l-4.8,2.165c-1.279-2.1-3.019-3.289-4.286-2.769-1.56.64-1.811,3.631-.56,6.682s3.53,5,5.09,4.365c1.412-.579,1.747-3.087.871-5.82l4.882-2.353a37.721,37.721,0,0,0,21.938,17.516l-1.033,4.233c-3.488-.314-6.326.67-6.8,2.56-.59,2.329,2.623,5.152,7.177,6.305s8.723.2,9.313-2.129c.534-2.108-2.054-4.617-5.926-5.93l1.008-4.13a37.617,37.617,0,0,0,26.491-4.715l1.92,2.956c-1.838,1.631-2.7,3.554-1.966,4.709.906,1.422,3.895,1.139,6.676-.633s4.3-4.361,3.394-5.783c-.82-1.287-3.347-1.173-5.882.174l-1.887-2.905a37.786,37.786,0,0,0,12.283-14.5L141.9,117.9c-.74,3.423-.112,6.36,1.706,7.067,2.239.871,5.435-1.971,7.139-6.349S152.013,109.982,149.774,109.111ZM119.1,73.048a4.651,4.651,0,1,1-4.651,4.651A4.651,4.651,0,0,1,119.1,73.048ZM78.507,104.765a5.327,5.327,0,1,1,5.327-5.327A5.327,5.327,0,0,1,78.507,104.765Zm0-25.886A6.816,6.816,0,1,1,85.323,85.7,6.816,6.816,0,0,1,78.507,78.879Zm15.272,50.23a6.816,6.816,0,1,1,6.816-6.816A6.816,6.816,0,0,1,93.779,129.109Zm9.928-32.76a5.327,5.327,0,1,1,5.327-5.327A5.327,5.327,0,0,1,103.707,96.35Zm12.8,29.919a4.651,4.651,0,1,1,4.651-4.651A4.651,4.651,0,0,1,116.5,126.268Zm9.141-17.314a8.465,8.465,0,1,1,8.465-8.465A8.465,8.465,0,0,1,125.646,108.954Z" transform="translate(0 0)" fill="#19609d"/>
      <circle id="Ellipse_9-2" data-name="Ellipse 9" cx="8.465" cy="8.465" r="8.465" transform="translate(117.181 92.025)" fill="rgba(50,139,216,0.21)"/>
      <path id="Path_117-2" data-name="Path 117" d="M346.809,301.759a6.816,6.816,0,1,0-6.816,6.816A6.816,6.816,0,0,0,346.809,301.759Z" transform="translate(-254.669 -222.88)" fill="rgba(50,139,216,0.21)"/>
      <circle id="Ellipse_10-2" data-name="Ellipse 10" cx="6.816" cy="6.816" r="6.816" transform="translate(86.963 115.477)" fill="rgba(50,139,216,0.21)"/>
      <path id="Path_118-2" data-name="Path 118" d="M559.133,446.3a5.327,5.327,0,1,0,5.327,5.327A5.327,5.327,0,0,0,559.133,446.3Z" transform="translate(-455.426 -360.602)" fill="rgba(50,139,216,0.21)"/>
      <path id="Path_119-2" data-name="Path 119" d="M279.361,539.723a5.327,5.327,0,1,0,5.327,5.327A5.327,5.327,0,0,0,279.361,539.723Z" transform="translate(-200.854 -445.613)" fill="rgba(50,139,216,0.21)"/>
      <path id="Path_120-2" data-name="Path 120" d="M708.05,793.468a4.651,4.651,0,1,0,4.651,4.651A4.651,4.651,0,0,0,708.05,793.468Z" transform="translate(-591.545 -676.502)" fill="rgba(50,139,216,0.21)"/>
      <path id="Path_121-2" data-name="Path 121" d="M736.859,315.183a4.651,4.651,0,1,0-4.651-4.651A4.651,4.651,0,0,0,736.859,315.183Z" transform="translate(-617.759 -232.833)" fill="rgba(50,139,216,0.21)"/>
    </g>
    <g id="coronavirus-covid19-icon-by-Vexels-3" data-name="coronavirus-covid19-icon-by-Vexels" transform="translate(1334.42 266.055)">
      <path id="Path_116-3" data-name="Path 116" d="M98.037,77.411c-.94-.366-2.242.682-3.067,2.39l-2.58-.978a17.46,17.46,0,0,0-1.277-14.555l1.447-.843c1.018,1.265,2.259,1.9,3.044,1.448.967-.552.876-2.534-.2-4.425s-2.74-2.977-3.708-2.425c-.876.5-.881,2.172-.073,3.887l-1.471.857a17.5,17.5,0,0,0-7.833-6.1l.422-1.478c1.13.146,2.066-.138,2.245-.747.221-.75-.788-1.709-2.254-2.142s-2.835-.176-3.056.574c-.2.679.609,1.528,1.852,2l-.391,1.369a17.541,17.541,0,0,0-10.318-.008L69.9,53.735c1.426-.777,2.267-1.887,1.965-2.739-.372-1.05-2.338-1.311-4.392-.584s-3.416,2.169-3.044,3.219c.337.951,1.981,1.252,3.813.761l.9,2.463A17.516,17.516,0,0,0,61.4,63.3L58.02,61.843c.45-1.56.252-2.939-.566-3.323-1.008-.474-2.577.74-3.5,2.712s-.86,3.954.148,4.428c.913.429,2.283-.528,3.222-2.176l3.167,1.364a17.467,17.467,0,0,0-.273,15.622l-2.226,1C57.4,80.5,56.59,79.948,56,80.189c-.724.3-.84,1.684-.26,3.1s1.637,2.321,2.36,2.024c.655-.269.81-1.431.4-2.7l2.264-1.091a17.492,17.492,0,0,0,10.173,8.123l-.479,1.963c-1.617-.145-2.933.311-3.155,1.187-.274,1.08,1.217,2.389,3.328,2.924s4.045.093,4.319-.987c.248-.978-.952-2.141-2.748-2.75l.467-1.915A17.444,17.444,0,0,0,84.962,87.88l.89,1.371C85,90.008,84.6,90.9,84.94,91.435c.42.659,1.806.528,3.1-.294s1.994-2.022,1.574-2.682c-.38-.6-1.552-.544-2.728.081l-.875-1.347a17.523,17.523,0,0,0,5.7-6.724l2.681,1.017c-.343,1.587-.052,2.949.791,3.277,1.038.4,2.52-.914,3.31-2.944S99.075,77.816,98.037,77.411ZM83.812,60.688a2.157,2.157,0,1,1-2.157,2.157A2.157,2.157,0,0,1,83.812,60.688ZM64.988,75.4a2.47,2.47,0,1,1,2.47-2.47A2.47,2.47,0,0,1,64.988,75.4Zm0-12a3.161,3.161,0,1,1,3.161,3.161A3.161,3.161,0,0,1,64.988,63.392ZM72.07,86.685a3.161,3.161,0,1,1,3.161-3.161A3.161,3.161,0,0,1,72.07,86.685Zm4.6-15.192a2.47,2.47,0,1,1,2.47-2.47A2.47,2.47,0,0,1,76.674,71.494Zm5.935,13.874a2.157,2.157,0,1,1,2.157-2.157A2.157,2.157,0,0,1,82.609,85.368Zm4.239-8.029a3.925,3.925,0,1,1,3.925-3.925A3.925,3.925,0,0,1,86.848,77.339Z" transform="translate(0)" fill="#19609d"/>
      <circle id="Ellipse_9-3" data-name="Ellipse 9" cx="3.925" cy="3.925" r="3.925" transform="translate(82.922 69.488)" fill="rgba(50,139,216,0.21)"/>
      <path id="Path_117-3" data-name="Path 117" d="M339.5,298.1a3.161,3.161,0,1,0-3.161,3.161A3.161,3.161,0,0,0,339.5,298.1Z" transform="translate(-268.188 -234.712)" fill="rgba(50,139,216,0.21)"/>
      <circle id="Ellipse_10-3" data-name="Ellipse 10" cx="3.161" cy="3.161" r="3.161" transform="translate(68.909 80.363)" fill="rgba(50,139,216,0.21)"/>
      <path id="Path_118-3" data-name="Path 118" d="M556.276,446.3a2.47,2.47,0,1,0,2.47,2.47A2.47,2.47,0,0,0,556.276,446.3Z" transform="translate(-479.602 -379.744)" fill="rgba(50,139,216,0.21)"/>
      <path id="Path_119-3" data-name="Path 119" d="M276.5,539.723a2.47,2.47,0,1,0,2.47,2.47A2.47,2.47,0,0,0,276.5,539.723Z" transform="translate(-211.516 -469.268)" fill="rgba(50,139,216,0.21)"/>
      <path id="Path_120-3" data-name="Path 120" d="M705.556,793.468a2.157,2.157,0,1,0,2.157,2.157A2.157,2.157,0,0,0,705.556,793.468Z" transform="translate(-622.947 -712.414)" fill="rgba(50,139,216,0.21)"/>
      <path id="Path_121-3" data-name="Path 121" d="M734.365,310.195a2.157,2.157,0,1,0-2.157-2.157A2.157,2.157,0,0,0,734.365,310.195Z" transform="translate(-650.553 -245.193)" fill="rgba(50,139,216,0.21)"/>
    </g>
  </g>
</svg>
